<svg xmlns="http://www.w3.org/2000/svg" fill="none" viewBox="0 0 148 150">
  <path fill="#48111E" fill-rule="evenodd" d="M.227 1.824c.125.455.258.939.273 1.676.019.002.042.001.066 0 .058-.002.121-.004.14.032-.65.65-.22 2.258.225 3.926.343 1.286.696 2.607.573 3.555V11c-.02.294-.04.592-.062.894-.096 1.37-.197 2.815-.166 4.252C.482 19.798.562 24.18.64 28.521c.06 3.258.12 6.494-.192 9.38l-.035-.257C-.08 44.9.138 52.391.356 59.868c.183 6.288.366 12.565.124 18.681l-.057-.084c1.33 16.12 1.093 31.371-.39 47.535h.002c.114 2.158.457 3.774.808 5.428.68 3.201 1.39 6.546.525 14.239L24.03 150v-24h-.002V0H.02c-.072.804.062 1.295.207 1.824Zm31.769 147.938c31.341-.933 59.564-1.774 89.151-3.816 8.687-.931 11.782-.723 16.551-.402 2.57.173 5.626.378 10.304.456V0H24.032v150l7.964-.238Z" clip-rule="evenodd"/>
</svg>