<svg xmlns="http://www.w3.org/2000/svg" fill="none" viewBox="0 0 148 150">
  <path fill="#48111E" fill-rule="evenodd" d="M148 0H0v146c2.99-.435 5.517-.006 6.613.214-.08.054.125.086.477.099.067.013.103.018.105.012l.022-.005.013-.003c1.37.032 4.348-.161 2.622-.417a6.607 6.607 0 0 0-.008-.044l-.003-.016c2.11-.066 4.315.11 6.54.287 3.711.297 7.482.598 10.976-.215.203-.011.41-.017.615-.023l.128-.004.126-.004c.008.007.004.016 0 .025-.003.01-.007.021 0 .032.37.043.736.102 1.103.161.776.125 1.557.251 2.388.228a.687.687 0 0 0 0-.066c-.002-.058-.003-.121.025-.14.606.789 2.407.84 4.019.886.737.021 1.435.041 1.96.13h-.01c.226.019.455.04.687.061 1.052.096 2.163.198 3.268.167 2.872.813 6.302.844 9.69.875 2.405.021 4.79.043 6.939.344l-.198.036c6.253 1.13 12.947 1.006 19.599.883 3.996-.074 7.976-.148 11.837.051l-.064.057c12.387-1.331 24.109-1.094 36.531.389l19.323-2 .041-1.95v-.023c.201-9.627.29-13.928 2.636-20.027h-.001C146.961 81 147 45.5 148 0Z" clip-rule="evenodd"/>
</svg>