<svg xmlns="http://www.w3.org/2000/svg" fill="none" viewBox="0 0 148 150">
  <path fill="#48111E" fill-rule="evenodd" d="M-10 3.996c1.5-.5 5.17-.546 5.195-.488.26.063.635.085 1.019.107.8.047 1.63.095 1.494.525h.118c0-.032.543-.051 1.086-.07C-.547 4.051-.005 4.032 0 4h5c2.915.488 6.116.17 9.363-.152 3.725-.37 7.51-.747 10.993.083.202.011.409.018.613.024l.255.008c.008-.008.004-.017 0-.026-.003-.01-.007-.021 0-.032.37-.044.736-.105 1.103-.165.776-.128 1.557-.257 2.388-.234.002.02 0 .043 0 .067-.002.06-.003.124.025.144.606-.808 2.407-.86 4.019-.908.737-.021 1.434-.041 1.96-.132h-.01l.687-.063c1.052-.099 2.163-.202 3.267-.171 2.873-.832 6.302-.864 9.69-.895 2.405-.023 4.79-.045 6.938-.353l-.197-.037C62.346.001 69.04.128 75.692.254c3.995.076 7.975.151 11.836-.052l-.064-.058c6.78.746 12.883.47 19.318.18 5.321-.24 10.868-.49 17.21-.18h.001l21.501 2.746c.381 6.806 1.201 14.232 2.47 21.23h.006c-1.483 16.149-1.695 31.386-.364 47.49l-.057-.084c-.199 5.02-.125 10.194-.051 15.388.123 8.648.247 17.35-.883 25.478l-.036-.257c-.332 3.081.096 6.536.523 9.989.506 4.085 1.012 8.167.258 11.628.031 1.435-.07 2.88-.167 4.248-.021.301-.042.599-.061.893v-.013c-.283 2.176.228 4.12.228 4.12l-.038 3.685c.034 1.592.678 3.315.678 3.315h-24.004V24.12h.008l-.011-21.541V150H-10V3.996Z" clip-rule="evenodd"/>
</svg>