<svg width="113" height="95" viewBox="0 0 113 95" fill="none" xmlns="http://www.w3.org/2000/svg">
<path d="M3.99609 4.05561C1.40131 6.24897 0.644099 9.90375 0.589844 11.457C0.674203 11.2513 1.29069 10.4653 3.08175 8.96662C4.87281 7.46798 6.7979 7.38269 7.53656 7.52738C7.53656 6.94863 7.71933 5.38907 8.45037 3.78076C9.18142 2.17246 11.5725 0.887329 12.6767 0.445801C10.6892 0.537181 7.23958 1.31392 3.99609 4.05561Z" fill="#282D43"/>
<path fill-rule="evenodd" clip-rule="evenodd" d="M0 12.47C0 5.58 5.61 0 12.51 0H16V1C13.29 1 10.24 1.71 8.81 4.24C8.36 5.04 8.16 5.85 8.08 6.47C8.01 7 8.03 7.47 8.08 8H7.54C5.76 8 4.46 8.45 3.59 9.22C1.11 11.42 1 14.62 1 16H0V12.49V12.47ZM1.18 10.59C1.6 9.8 2.18 9.04 2.96 8.42C3.97 7.63 5.3 7.09 7.03 7C7.03 6.81 7.05 6.59 7.09 6.33C7.18 5.63 7.41 4.69 7.94 3.75C8.48 2.79 9.33 1.85 10.63 1.15C5.79 1.95 1.97 5.76 1.18 10.6V10.59Z" fill="#3D3F52"/>
<mask id="path-3-inside-1_57552_2537" fill="white">
<path d="M0 16H8V79H0V16Z"/>
</mask>
<path d="M1 79V16H-1V79H1Z" fill="#3D3F52" mask="url(#path-3-inside-1_57552_2537)"/>
<path d="M3.99609 90.9444C1.40131 88.751 0.644099 85.0962 0.589844 83.543C0.674203 83.7487 1.29069 84.5347 3.08175 86.0334C4.87281 87.532 6.7979 87.6173 7.53656 87.4726C7.53656 88.0514 7.71933 89.6109 8.45037 91.2192C9.18142 92.8275 11.5725 94.1127 12.6767 94.5542C10.6892 94.4628 7.23958 93.6861 3.99609 90.9444Z" fill="#282D43"/>
<path fill-rule="evenodd" clip-rule="evenodd" d="M0 82.53C0 89.42 5.61 95 12.51 95H16V94C13.29 94 10.24 93.29 8.81 90.76C8.36 89.96 8.16 89.15 8.08 88.53C8.01 88 8.03 87.53 8.08 87H7.54C5.76 87 4.46 86.55 3.59 85.78C1.11 83.58 1 80.38 1 79H0V82.51V82.53ZM1.18 84.41C1.6 85.2 2.18 85.96 2.96 86.58C3.97 87.37 5.3 87.91 7.03 88C7.03 88.19 7.05 88.41 7.09 88.67C7.18 89.37 7.41 90.31 7.94 91.25C8.48 92.21 9.33 93.15 10.63 93.85C5.79 93.05 1.97 89.24 1.18 84.4V84.41Z" fill="#3D3F52"/>
<mask id="path-7-inside-2_57552_2537" fill="white">
<path d="M16 0H97V95H16V0Z"/>
</mask>
<path d="M16 1H97V-1H16V1ZM97 94H16V96H97V94Z" fill="#3D3F52" mask="url(#path-7-inside-2_57552_2537)"/>
<path d="M109.004 4.05561C111.599 6.24897 112.356 9.90375 112.41 11.457C112.326 11.2513 111.709 10.4653 109.918 8.96662C108.127 7.46798 106.202 7.38269 105.463 7.52738C105.463 6.94863 105.281 5.38907 104.55 3.78076C103.819 2.17246 101.427 0.887329 100.323 0.445801C102.311 0.537181 105.76 1.31392 109.004 4.05561Z" fill="#282D43"/>
<path fill-rule="evenodd" clip-rule="evenodd" d="M113 12.47C113 5.58 107.39 0 100.49 0H97V1C99.71 1 102.76 1.71 104.19 4.24C104.64 5.04 104.84 5.85 104.92 6.47C104.99 7 104.97 7.47 104.92 8H105.46C107.24 8 108.54 8.45 109.41 9.22C111.89 11.42 112 14.62 112 16H113V12.49V12.47ZM111.82 10.59C111.4 9.8 110.82 9.04 110.04 8.42C109.03 7.63 107.7 7.09 105.97 7C105.97 6.81 105.95 6.59 105.91 6.33C105.82 5.63 105.59 4.69 105.06 3.75C104.52 2.79 103.67 1.85 102.37 1.15C107.21 1.95 111.03 5.76 111.82 10.6V10.59Z" fill="#3D3F52"/>
<mask id="path-11-inside-3_57552_2537" fill="white">
<path d="M113 16H105V79H113V16Z"/>
</mask>
<path d="M112 79V16H114V79H112Z" fill="#3D3F52" mask="url(#path-11-inside-3_57552_2537)"/>
<path d="M109.004 90.9444C111.599 88.751 112.356 85.0962 112.41 83.543C112.326 83.7487 111.709 84.5347 109.918 86.0334C108.127 87.532 106.202 87.6173 105.463 87.4726C105.463 88.0514 105.281 89.6109 104.55 91.2192C103.819 92.8275 101.427 94.1127 100.323 94.5542C102.311 94.4628 105.76 93.6861 109.004 90.9444Z" fill="#282D43"/>
<path fill-rule="evenodd" clip-rule="evenodd" d="M113 82.53C113 89.42 107.39 95 100.49 95H97V94C99.71 94 102.76 93.29 104.19 90.76C104.64 89.96 104.84 89.15 104.92 88.53C104.99 88 104.97 87.53 104.92 87H105.46C107.24 87 108.54 86.55 109.41 85.78C111.89 83.58 112 80.38 112 79H113V82.51V82.53ZM111.82 84.41C111.4 85.2 110.82 85.96 110.04 86.58C109.03 87.37 107.7 87.91 105.97 88C105.97 88.19 105.95 88.41 105.91 88.67C105.82 89.37 105.59 90.31 105.06 91.25C104.52 92.21 103.67 93.15 102.37 93.85C107.21 93.05 111.03 89.24 111.82 84.4V84.41Z" fill="#3D3F52"/>
</svg>
