<svg width="110" height="95" viewBox="0 0 110 95" fill="none" xmlns="http://www.w3.org/2000/svg">
<path d="M3.99609 4.05561C1.40131 6.24897 0.644099 9.90375 0.589844 11.457C0.674203 11.2513 1.29069 10.4653 3.08175 8.96662C4.87281 7.46798 6.7979 7.38269 7.53656 7.52738C7.53656 6.94863 7.71933 5.38907 8.45037 3.78076C9.18142 2.17246 11.5725 0.887329 12.6767 0.445801C10.6892 0.537181 7.23958 1.31392 3.99609 4.05561Z" fill="#282D43"/>
<path fill-rule="evenodd" clip-rule="evenodd" d="M0 12.47C0 5.58 5.61 0 12.51 0H16V1C13.29 1 10.24 1.71 8.81 4.24C8.36 5.04 8.16 5.85 8.08 6.47C8.01 7 8.03 7.47 8.08 8H7.54C5.76 8 4.46 8.45 3.59 9.22C1.11 11.42 1 14.62 1 16H0V12.49V12.47ZM1.18 10.59C1.6 9.8 2.18 9.04 2.96 8.42C3.97 7.63 5.3 7.09 7.03 7C7.03 6.81 7.05 6.59 7.09 6.33C7.18 5.63 7.41 4.69 7.94 3.75C8.48 2.79 9.33 1.85 10.63 1.15C5.79 1.95 1.97 5.76 1.18 10.6V10.59Z" fill="#FFCF6E"/>
<mask id="path-3-inside-1_57556_12171" fill="white">
<path d="M0 16H8V79H0V16Z"/>
</mask>
<path d="M1 79V16H-1V79H1Z" fill="#FFCF6E" mask="url(#path-3-inside-1_57556_12171)"/>
<path d="M3.99609 90.9444C1.40131 88.751 0.644099 85.0962 0.589844 83.543C0.674203 83.7487 1.29069 84.5347 3.08175 86.0334C4.87281 87.532 6.7979 87.6173 7.53656 87.4726C7.53656 88.0514 7.71933 89.6109 8.45037 91.2192C9.18142 92.8275 11.5725 94.1127 12.6767 94.5542C10.6892 94.4628 7.23958 93.6861 3.99609 90.9444Z" fill="#282D43"/>
<path fill-rule="evenodd" clip-rule="evenodd" d="M0 82.53C0 89.42 5.61 95 12.51 95H16V94C13.29 94 10.24 93.29 8.81 90.76C8.36 89.96 8.16 89.15 8.08 88.53C8.01 88 8.03 87.53 8.08 87H7.54C5.76 87 4.46 86.55 3.59 85.78C1.11 83.58 1 80.38 1 79H0V82.51V82.53ZM1.18 84.41C1.6 85.2 2.18 85.96 2.96 86.58C3.97 87.37 5.3 87.91 7.03 88C7.03 88.19 7.05 88.41 7.09 88.67C7.18 89.37 7.41 90.31 7.94 91.25C8.48 92.21 9.33 93.15 10.63 93.85C5.79 93.05 1.97 89.24 1.18 84.4V84.41Z" fill="#FFCF6E"/>
<mask id="path-7-inside-2_57556_12171" fill="white">
<path d="M16 0H94V95H16V0Z"/>
</mask>
<path d="M16 1H94V-1H16V1ZM94 94H16V96H94V94Z" fill="#FFCF6E" mask="url(#path-7-inside-2_57556_12171)"/>
<path d="M106.004 4.05561C108.599 6.24897 109.356 9.90375 109.41 11.457C109.326 11.2513 108.709 10.4653 106.918 8.96662C105.127 7.46798 103.202 7.38269 102.463 7.52738C102.463 6.94863 102.281 5.38907 101.55 3.78076C100.819 2.17246 98.4275 0.887329 97.3233 0.445801C99.3108 0.537181 102.76 1.31392 106.004 4.05561Z" fill="#282D43"/>
<path fill-rule="evenodd" clip-rule="evenodd" d="M110 12.47C110 5.58 104.39 0 97.49 0H94V1C96.71 1 99.76 1.71 101.19 4.24C101.64 5.04 101.84 5.85 101.92 6.47C101.99 7 101.97 7.47 101.92 8H102.46C104.24 8 105.54 8.45 106.41 9.22C108.89 11.42 109 14.62 109 16H110V12.49V12.47ZM108.82 10.59C108.4 9.8 107.82 9.04 107.04 8.42C106.03 7.63 104.7 7.09 102.97 7C102.97 6.81 102.95 6.59 102.91 6.33C102.82 5.63 102.59 4.69 102.06 3.75C101.52 2.79 100.67 1.85 99.37 1.15C104.21 1.95 108.03 5.76 108.82 10.6V10.59Z" fill="#FFCF6E"/>
<mask id="path-11-inside-3_57556_12171" fill="white">
<path d="M110 16H102V79H110V16Z"/>
</mask>
<path d="M109 79V16H111V79H109Z" fill="#FFCF6E" mask="url(#path-11-inside-3_57556_12171)"/>
<path d="M106.004 90.9444C108.599 88.751 109.356 85.0962 109.41 83.543C109.326 83.7487 108.709 84.5347 106.918 86.0334C105.127 87.532 103.202 87.6173 102.463 87.4726C102.463 88.0514 102.281 89.6109 101.55 91.2192C100.819 92.8275 98.4275 94.1127 97.3233 94.5542C99.3108 94.4628 102.76 93.6861 106.004 90.9444Z" fill="#282D43"/>
<path fill-rule="evenodd" clip-rule="evenodd" d="M110 82.53C110 89.42 104.39 95 97.49 95H94V94C96.71 94 99.76 93.29 101.19 90.76C101.64 89.96 101.84 89.15 101.92 88.53C101.99 88 101.97 87.53 101.92 87H102.46C104.24 87 105.54 86.55 106.41 85.78C108.89 83.58 109 80.38 109 79H110V82.51V82.53ZM108.82 84.41C108.4 85.2 107.82 85.96 107.04 86.58C106.03 87.37 104.7 87.91 102.97 88C102.97 88.19 102.95 88.41 102.91 88.67C102.82 89.37 102.59 90.31 102.06 91.25C101.52 92.21 100.67 93.15 99.37 93.85C104.21 93.05 108.03 89.24 108.82 84.4V84.41Z" fill="#FFCF6E"/>
</svg>
