<svg width="24" height="24" viewBox="0 0 24 24" fill="none" xmlns="http://www.w3.org/2000/svg">
<path d="M0.061932 12.3889C0.196938 12.7833 3.40459 22 12 22C20.5954 22 23.8031 12.7833 23.9381 12.3889C24.0206 12.1377 24.0206 11.8623 23.9381 11.6111C23.8031 11.2167 20.5954 2 12 2C3.40459 2 0.196938 11.2167 0.061932 11.6111C-0.020644 11.8623 -0.020644 12.1377 0.061932 12.3889ZM12 19C18.3578 19 21.2504 10.3333 21.9155 12C21.2504 13.6167 18.3053 19.7778 12 19.7778C5.6422 19.7778 2.74956 13.6667 2.08453 12C2.74956 10.3833 5.6947 19 12 19Z" fill="black"/>
</svg>
