<svg width="24" height="24" viewBox="0 0 24 24" fill="none" xmlns="http://www.w3.org/2000/svg">
<path d="M0.061932 12.3889C0.196938 12.7833 3.40459 22 12 22C20.5954 22 23.8031 12.7833 23.9381 12.3889C24.0206 12.1377 24.0206 11.8623 23.9381 11.6111C23.8031 11.2167 20.5954 2 12 2C3.40459 2 0.196938 11.2167 0.061932 11.6111C-0.020644 11.8623 -0.020644 12.1377 0.061932 12.3889ZM12 4.22222C18.3578 4.22222 21.2504 10.3333 21.9155 12C21.2504 13.6167 18.3053 19.7778 12 19.7778C5.6422 19.7778 2.74956 13.6667 2.08453 12C2.74956 10.3833 5.6947 4.22222 12 4.22222Z" fill="black"/>
<path d="M8.88485 16.3444C9.76916 17.1298 10.8679 17.557 12 17.5556C12.3904 17.5546 12.7795 17.5052 13.1601 17.4083C14.0626 17.1767 14.8885 16.6684 15.544 15.9411C16.1994 15.2139 16.658 14.2969 16.8677 13.2944C17.0417 12.4729 17.0459 11.6182 16.88 10.7946C16.7142 9.97099 16.3826 9.19979 15.9102 8.53889C15.4431 7.88436 14.8486 7.35589 14.1714 6.99315C13.4942 6.6304 12.7518 6.44281 12 6.44444C11.7348 6.44444 11.4804 6.56151 11.2929 6.76988C11.1053 6.97826 11 7.26087 11 7.55556V9.77778C11 10.0725 10.8946 10.3551 10.707 10.5635C10.5195 10.7718 10.2651 10.8889 9.9999 10.8889H7.99981C7.73458 10.8889 7.48021 11.006 7.29267 11.2143C7.10512 11.4227 6.99976 11.7053 6.99976 12C6.99829 12.8353 7.16713 13.6601 7.49362 14.4126C7.82011 15.165 8.29575 15.8255 8.88485 16.3444ZM9.9999 13.1111C10.7956 13.1111 11.5587 12.7599 12.1213 12.1348C12.684 11.5097 13 10.6618 13 9.77778V8.85556C13.4775 9.04363 13.9043 9.36296 14.2407 9.78379C14.5771 10.2046 14.8121 10.7132 14.9238 11.2622C15.0356 11.8112 15.0203 12.3827 14.8796 12.9234C14.7389 13.464 14.4772 13.9563 14.119 14.3543C13.7608 14.7523 13.3177 15.043 12.8311 15.1994C12.3444 15.3558 11.8301 15.3727 11.336 15.2486C10.8419 15.1244 10.3841 14.8633 10.0053 14.4896C9.62655 14.1158 9.33914 13.6416 9.16986 13.1111H9.9999Z" fill="black"/>
</svg>
