<svg width="28" height="49" viewBox="0 0 28 49" fill="none" xmlns="http://www.w3.org/2000/svg">
<path d="M23.8323 34.78C27.5642 28.3975 27.8688 18.5534 23.8323 13.0364L17.8538 23.4214L23.8323 34.78Z" fill="url(#paint0_linear_58162_24453)"/>
<path d="M4.02092 0.203369C10.6864 0.203369 19.3089 2.87634 24.8414 12.864C29.0791 20.5119 28.4685 28.9852 24.8856 35.4518C19.3457 45.4471 11.4074 48.2034 3.71928 48.2034H0.798525V47.2034C5.57326 47.2034 10.76 46.0377 14.8211 43.1073C18.2274 40.6539 20.1476 37.9128 20.5155 34.9672C20.7435 33.1802 20.3389 31.3856 19.6988 29.7803C18.2716 26.1911 18.2716 22.2081 19.6988 18.6265C20.3389 17.0287 20.7435 15.2266 20.5155 13.4395C20.1403 10.494 18.2495 7.71496 14.8211 5.29944C9.45044 1.49821 3.00565 1.20337 0.805885 1.20337L0.805883 0.203369H4.02092ZM22.4283 28.6369C22.8624 29.7273 23.1714 30.7949 23.3479 31.8399C25.3564 26.9559 25.3564 21.5115 23.3479 16.582C23.1714 17.6269 22.8624 18.687 22.4283 19.7774C21.288 22.6321 21.288 25.7822 22.4283 28.6369Z" fill="url(#paint1_linear_58162_24453)"/>
<defs>
<linearGradient id="paint0_linear_58162_24453" x1="23.1828" y1="9.9679" x2="23.1828" y2="38.2747" gradientUnits="userSpaceOnUse">
<stop stop-color="white" stop-opacity="0.4"/>
<stop offset="0.5" stop-color="white" stop-opacity="0.04"/>
<stop offset="1" stop-color="white" stop-opacity="0.1"/>
</linearGradient>
<linearGradient id="paint1_linear_58162_24453" x1="14.2993" y1="0.203369" x2="14.2993" y2="48.2034" gradientUnits="userSpaceOnUse">
<stop stop-color="#D4E0F7"/>
<stop offset="0.336774" stop-color="#BFBFBF"/>
<stop offset="0.489492" stop-color="#DAD9D8"/>
<stop offset="0.506828" stop-color="#464544"/>
<stop offset="0.673137" stop-color="#818998"/>
<stop offset="0.883497" stop-color="#3B3B3B"/>
<stop offset="0.997119" stop-color="#1F1F1F"/>
</linearGradient>
</defs>
</svg>
