<svg width="42" height="35" viewBox="0 0 42 35" fill="none" xmlns="http://www.w3.org/2000/svg">
<g clip-path="url(#clip0_58162_696)">
<path d="M1.78516 28.4905V15.416C2.83023 17.306 5.97433 22.2468 10.1902 26.8896C14.406 31.5323 23.5982 33.449 27.6673 33.827H8.72264C8.68929 33.638 8.20233 32.8398 6.52132 31.1588C4.84032 29.4778 2.66346 28.6795 1.78516 28.4905Z" fill="#13182A"/>
<path d="M1.78516 28.4905V15.416C2.83023 17.306 5.97433 22.2468 10.1902 26.8896C14.406 31.5323 23.5982 33.449 27.6673 33.827H8.72264C8.68929 33.638 8.20233 32.8398 6.52132 31.1588C4.84032 29.4778 2.66346 28.6795 1.78516 28.4905Z" fill="url(#paint0_radial_58162_696)" fill-opacity="0.6"/>
<path d="M3.7 3.43596C3.79031 2.06361 2.40651 1.36218 1.50343 1.01656V0H0.5V30.0013C3.74107 30.1131 6.53059 32.2451 7.93539 35C7.93539 35 35.65 35 41.5 35V33C19.6439 33 2.04339 29.4611 3.7 3.43596ZM9.48062 33C7.93534 30.7026 5.16593 28.5989 2.49682 28.0093V18C4.87494 26.0308 11.0879 30.9364 20.5 33C15.6434 33.0508 11.3972 32.9695 9.48062 33Z" fill="#676E85"/>
</g>
<defs>
<radialGradient id="paint0_radial_58162_696" cx="0" cy="0" r="1" gradientUnits="userSpaceOnUse" gradientTransform="translate(14.7262 33.827) rotate(-90) scale(9.2708 13.0329)">
<stop stop-color="#10275B"/>
<stop offset="1" stop-color="#10275B" stop-opacity="0"/>
</radialGradient>
<clipPath id="clip0_58162_696">
<rect width="41" height="35" fill="white" transform="translate(0.5)"/>
</clipPath>
</defs>
</svg>
