<svg width="42" height="35" viewBox="0 0 42 35" fill="none" xmlns="http://www.w3.org/2000/svg">
<g clip-path="url(#clip0_58162_700)">
<path d="M40.2148 28.4905V15.416C39.1698 17.306 36.0257 22.2468 31.8098 26.8896C27.594 31.5323 18.4018 33.449 14.3327 33.827H33.2774C33.3107 33.638 33.7977 32.8398 35.4787 31.1588C37.1597 29.4778 39.3365 28.6795 40.2148 28.4905Z" fill="#13182A"/>
<path d="M40.2148 28.4905V15.416C39.1698 17.306 36.0257 22.2468 31.8098 26.8896C27.594 31.5323 18.4018 33.449 14.3327 33.827H33.2774C33.3107 33.638 33.7977 32.8398 35.4787 31.1588C37.1597 29.4778 39.3365 28.6795 40.2148 28.4905Z" fill="url(#paint0_radial_58162_700)" fill-opacity="0.6"/>
<path d="M38.3 3.43596C38.2097 2.06361 39.5935 1.36218 40.4966 1.01656V0H41.5V30.0013C38.2589 30.1131 35.4694 32.2451 34.0646 35C34.0646 35 6.34998 35 0.5 35V33C22.3561 33 39.9566 29.4611 38.3 3.43596ZM32.5194 33C34.0647 30.7026 36.8341 28.5989 39.5032 28.0093V18C37.1251 26.0308 30.9121 30.9364 21.5 33C26.3566 33.0508 30.6028 32.9695 32.5194 33Z" fill="#676E85"/>
</g>
<defs>
<radialGradient id="paint0_radial_58162_700" cx="0" cy="0" r="1" gradientUnits="userSpaceOnUse" gradientTransform="translate(27.2738 33.827) rotate(-90) scale(9.2708 13.0329)">
<stop stop-color="#10275B"/>
<stop offset="1" stop-color="#10275B" stop-opacity="0"/>
</radialGradient>
<clipPath id="clip0_58162_700">
<rect width="41" height="35" fill="white" transform="matrix(-1 0 0 1 41.5 0)"/>
</clipPath>
</defs>
</svg>
