<svg width="53" height="8" viewBox="0 0 53 8" fill="none" xmlns="http://www.w3.org/2000/svg">
<g clip-path="url(#clip0_58162_703)">
<path d="M26.8765 6.33136L13.7852 1.63263C16.345 1.34102 22.5924 0.757812 27.1031 0.757812C31.6137 0.757812 37.8181 1.18984 40.3564 1.40586L26.8765 6.33136Z" fill="#13182A"/>
<path d="M26.8765 6.33136L13.7852 1.63263C16.345 1.34102 22.5924 0.757812 27.1031 0.757812C31.6137 0.757812 37.8181 1.18984 40.3564 1.40586L26.8765 6.33136Z" fill="url(#paint0_radial_58162_703)" fill-opacity="0.6"/>
<path d="M52.9736 0H0.973633C0.973633 0.598131 0.973633 1.40187 0.973633 2C10.0269 2 26.9736 8 26.9736 8C26.9736 8 43.9204 2 52.9736 2C52.9736 1.40187 52.9736 0.598131 52.9736 0ZM29.8679 4.67824C28.9129 5.00935 27.9481 5.15888 26.9736 5.15888C25.9991 5.15888 25.0246 5.02003 24.0793 4.67824C22.0523 3.9733 19.2945 3.01202 16.254 2.13618C18.32 1.6235 35.6273 1.65554 37.6933 2.13618C34.6528 3.01202 31.8949 3.96262 29.8679 4.67824Z" fill="#676E85"/>
</g>
<defs>
<radialGradient id="paint0_radial_58162_703" cx="0" cy="0" r="1" gradientUnits="userSpaceOnUse" gradientTransform="translate(27.0708 6.33136) rotate(-90) scale(2.80654 13.3798)">
<stop stop-color="#10275B"/>
<stop offset="1" stop-color="#10275B" stop-opacity="0"/>
</radialGradient>
<clipPath id="clip0_58162_703">
<rect width="52" height="8" fill="white" transform="translate(0.973633)"/>
</clipPath>
</defs>
</svg>
