<svg width="14" height="7" viewBox="0 0 14 7" fill="none" xmlns="http://www.w3.org/2000/svg">
<path d="M6.99609 5.16568C5.53905 5.16568 3.11605 3.68993 2.16406 3.54849C4.52386 2.75579 6.36867 1.3584 6.99609 0.758789C7.81974 2.10115 10.5075 3.02961 11.7484 3.32604C10.65 3.93925 8.16173 5.16568 6.99609 5.16568Z" fill="#13132B"/>
<path d="M6.99609 5.16568C5.53905 5.16568 3.11605 3.68993 2.16406 3.54849C4.52386 2.75579 6.36867 1.3584 6.99609 0.758789C7.81974 2.10115 10.5075 3.02961 11.7484 3.32604C10.65 3.93925 8.16173 5.16568 6.99609 5.16568Z" fill="url(#paint0_radial_58162_23846)" fill-opacity="0.6"/>
<path d="M7.00497 1.32996C8.07919 2.30121 9.41201 3.03621 10.894 3.49121C8.16871 5.05746 5.84124 5.04871 3.11591 3.49121C4.59793 3.03621 5.93076 2.30121 7.00497 1.32996ZM7.00497 -0.00878906C5.49311 1.75871 3.11591 2.78121 0.5 2.99121V3.99121C3.11591 4.19246 5.49311 5.23246 7.00497 6.99996C8.51683 5.23246 10.8841 4.20121 13.5 3.99121V2.99121C10.8841 2.78996 8.51683 1.75871 7.00497 -0.00878906Z" fill="#404961"/>
<defs>
<radialGradient id="paint0_radial_58162_23846" cx="0" cy="0" r="1" gradientUnits="userSpaceOnUse" gradientTransform="translate(6.95622 5.16568) rotate(-90) scale(2.21907 4.82615)">
<stop stop-color="#1B6DFF"/>
<stop offset="1" stop-color="#10275B" stop-opacity="0"/>
</radialGradient>
</defs>
</svg>
