<svg xmlns="http://www.w3.org/2000/svg" viewBox="0 0 34 34"><path fill-rule="evenodd" clip-rule="evenodd" d="M17 32.3c8.201 0 14.85-6.85 14.85-15.3 0-8.45-6.649-15.3-14.85-15.3S2.15 8.55 2.15 17c0 8.45 6.649 15.3 14.85 15.3Zm0 1.7c9.113 0 16.5-7.611 16.5-17S26.113 0 17 0 .5 7.611.5 17 7.887 34 17 34Z"/><path d="M10.332 12.036H8.367c-.023.606-.853 1.638-2.092 1.638v1.668c1.065 0 1.758-.407 1.965-.737h.09v7.36h2.002v-9.93ZM16.228 22.1c2.168 0 3.737-1.197 3.747-2.807-.01-1.241-.933-2.254-2.093-2.453v-.068c1.009-.213 1.725-1.115 1.734-2.2-.009-1.538-1.442-2.672-3.388-2.672-1.96 0-3.392 1.134-3.383 2.671-.01 1.086.707 1.988 1.734 2.201v.068c-1.178.199-2.102 1.212-2.092 2.453-.01 1.61 1.555 2.807 3.741 2.807Zm0-1.542c-.975 0-1.63-.586-1.62-1.43-.01-.858.678-1.478 1.62-1.478.929 0 1.612.62 1.621 1.478-.009.844-.66 1.43-1.62 1.43Zm0-4.436c-.82 0-1.404-.547-1.394-1.333-.01-.77.565-1.309 1.394-1.309.816 0 1.386.538 1.395 1.31-.01.785-.589 1.332-1.395 1.332Zm11.497.078h-2.318v-2.303h-1.579V16.2H21.51v1.6h2.318v2.303h1.579V17.8h2.318v-1.6Z"/></svg>