<svg viewBox="0 0 24 24" xmlns="http://www.w3.org/2000/svg"><path d="M11.883.45a.965.965 0 0 0-.493.134L1.66 5.34c-.076.043-.108.127-.17.189l10.016 5.618c.324.182.79.182 1.113 0l10.017-5.61c-.064-.064-.1-.152-.18-.197L12.376.584a1.111 1.111 0 0 0-.232-.09.946.946 0 0 0-.26-.044Zm.018 1.31c.57 0 1.084.124 1.49.358.406.235.727.617.727 1.077 0 .46-.321.834-.727 1.068-.406.235-.92.36-1.49.36s-1.102-.125-1.508-.36c-.406-.234-.718-.608-.718-1.068 0-.46.312-.842.718-1.077.406-.234.939-.359 1.508-.359ZM7.485 4.164c.57 0 1.093.133 1.5.368.405.234.726.608.726 1.068 0 .46-.32.833-.727 1.068-.406.234-.93.359-1.499.359-.569 0-1.093-.125-1.499-.36-.406-.234-.718-.607-.718-1.067 0-.46.312-.834.718-1.068.406-.235.93-.368 1.5-.368Zm8.77.26c.569 0 1.092.124 1.498.359.406.234.727.617.727 1.077 0 .46-.321.833-.727 1.068-.406.234-.93.359-1.499.359-.57 0-1.093-.125-1.499-.359-.406-.235-.718-.608-.718-1.068 0-.46.312-.843.718-1.077.406-.235.93-.36 1.5-.36ZM1.112 6.669v10.914a.98.98 0 0 0 .484.816l9.681 5.493a.96.96 0 0 0 .117.054V12.395a1.88 1.88 0 0 1-.538-.198L1.113 6.67Zm21.774 0-9.72 5.529c-.172.095-.36.16-.548.197v11.551c.042-.016.087-.032.126-.054l9.648-5.493a.988.988 0 0 0 .494-.816V6.669Zm-11.04.161c.57 0 1.084.134 1.49.368.406.235.727.608.727 1.068 0 .46-.32.834-.727 1.068-.406.235-.92.368-1.49.368-.569 0-1.093-.133-1.499-.368-.406-.234-.718-.608-.718-1.068 0-.46.312-.833.718-1.068.406-.234.93-.368 1.5-.368ZM3.07 9.137a1.6 1.6 0 0 1 .826.206c.413.224.793.6 1.077 1.077.285.478.429.979.422 1.436-.007.458-.172.91-.583 1.14-.412.23-.907.143-1.32-.08-.412-.224-.783-.591-1.068-1.069-.284-.477-.437-.978-.43-1.436.006-.457.18-.91.592-1.14a1.08 1.08 0 0 1 .484-.134Zm17.098.97c.227-.021.459.019.665.134.41.23.585.691.592 1.149.007.457-.137.958-.422 1.436-.284.477-.664.854-1.077 1.077-.413.223-.908.293-1.32.063-.41-.23-.585-.683-.592-1.14-.006-.458.146-.959.431-1.436.285-.478.655-.845 1.068-1.068a1.72 1.72 0 0 1 .655-.216ZM5.556 13.292c.28-.012.567.075.825.215.413.223.784.59 1.068 1.068.285.477.438.987.431 1.445-.007.458-.18.9-.592 1.13-.412.23-.898.161-1.31-.062-.413-.223-.793-.608-1.078-1.086-.284-.478-.428-.97-.421-1.427.006-.458.172-.919.583-1.149.154-.086.325-.127.494-.134Zm10.815 3.195c.225-.019.45.02.655.134.411.23.595.682.601 1.14.007.458-.146.959-.43 1.436-.285.478-.656.854-1.069 1.077-.412.223-.908.293-1.319.063-.411-.23-.585-.682-.592-1.14-.007-.457.137-.95.422-1.427.284-.477.655-.854 1.068-1.077a1.72 1.72 0 0 1 .664-.206Zm-8.33.978c.282-.012.569.067.826.206.413.224.784.6 1.069 1.077.284.478.428.97.421 1.428-.006.457-.172.918-.583 1.148-.411.23-.907.143-1.32-.08-.412-.224-.783-.591-1.067-1.069-.285-.477-.429-.978-.422-1.435.006-.458.172-.91.583-1.14.154-.087.325-.128.494-.135Z"/></svg>