<svg xmlns="http://www.w3.org/2000/svg" viewBox="0 0 16 16"><path d="m15.807 4.505-7.5-3.89a.752.752 0 0 0-.616 0l-7.5 3.89a.352.352 0 0 0-.153.471l.291.582a.613.613 0 0 0 .505.312H15.17a.618.618 0 0 0 .504-.312l.292-.582a.357.357 0 0 0-.159-.47ZM1.782 13.117a.502.502 0 0 0 0 1.002h12.434a.502.502 0 0 0 0-1.002h-.413l-.329-5.682c0-.182.129-.331.288-.331a.288.288 0 0 0 .288-.288c0-.16-.15-.288-.332-.288h-2.215c-.182 0-.331.129-.331.288 0 .159.128.287.287.287.16 0 .288.15.288.332l-.328 5.682H9.194l-.328-5.682c0-.183.129-.332.288-.332a.288.288 0 0 0 .288-.287c0-.16-.15-.288-.332-.288H6.895c-.183 0-.332.128-.332.288 0 .159.129.287.288.287s.288.15.288.332l-.328 5.682H4.586l-.328-5.682c0-.183.128-.332.288-.332a.288.288 0 0 0 .287-.287c0-.16-.149-.288-.332-.288H2.283c-.183 0-.332.128-.332.288 0 .159.13.287.288.287.16 0 .288.15.288.332l-.332 5.682h-.413Zm13.385 1.334H.834a.502.502 0 0 0 0 1.003h14.333a.502.502 0 0 0 0-1.003Z"/></svg>