<svg viewBox="0 0 24 24" xmlns="http://www.w3.org/2000/svg"><path d="M5.2 13.843h-.81v5.285H0V4.297h5.434c2.145 0 3.743.383 4.795 1.15 1.05.753 1.577 1.94 1.577 3.56 0 .922-.206 1.69-.618 2.3-.413.611-1.08 1.187-2.004 1.727l3.623 6.094H7.948L5.2 13.843Zm-.81-2.94h1.15c.597 0 1.045-.157 1.343-.47.298-.312.447-.788.447-1.427 0-1.136-.667-1.705-2.003-1.705H4.39v3.602Z"/><path d="M24 14.696c0 1.108-.355 2.06-1.066 2.855-.696.782-1.669 1.307-2.919 1.577v3.516h-2.877v-3.367c-1.918-.17-3.502-.866-4.752-2.088l2.046-2.238c1.066.91 2.223 1.364 3.473 1.364.583 0 1.016-.113 1.3-.34.299-.228.448-.534.448-.917 0-.284-.064-.519-.192-.703-.128-.2-.355-.377-.682-.533-.312-.156-.781-.334-1.406-.533-1.634-.511-2.778-1.13-3.431-1.854-.64-.724-.959-1.626-.959-2.706 0-1.122.377-2.053 1.13-2.791.767-.74 1.775-1.208 3.025-1.407V1.356h2.877v3.196c1.45.228 2.657.824 3.623 1.79l-1.833 2.174c-.952-.753-1.96-1.13-3.026-1.13-.497 0-.873.093-1.13.278a.82.82 0 0 0-.383.724c0 .242.071.44.213.597.142.156.377.305.704.447.34.142.88.327 1.619.554 1.477.483 2.543 1.08 3.197 1.79.667.71 1.001 1.684 1.001 2.92Z"/></svg>