<svg viewBox="0 0 24 24" xmlns="http://www.w3.org/2000/svg"><path d="M7.183 3.746c1.861 0 3.477.59 4.847 1.774L9.975 7.943a6.154 6.154 0 0 0-1.277-.736 3.26 3.26 0 0 0-1.298-.26c-.88 0-1.565.397-2.056 1.19-.476.794-.714 1.97-.714 3.528s.245 2.726.736 3.505c.49.764 1.19 1.147 2.099 1.147.49 0 .945-.101 1.363-.303.433-.202.909-.505 1.428-.91l1.947 2.468c-.606.605-1.341 1.11-2.207 1.514a6.525 6.525 0 0 1-2.748.584c-1.485 0-2.77-.303-3.851-.909-1.082-.62-1.918-1.528-2.51-2.726C.296 14.838 0 13.381 0 11.665c0-1.645.303-3.058.909-4.241.606-1.197 1.45-2.106 2.531-2.726 1.082-.635 2.33-.952 3.743-.952ZM24 14.737c0 1.125-.36 2.092-1.082 2.9-.707.793-1.695 1.326-2.964 1.6v3.57h-2.921V19.39c-1.947-.173-3.556-.88-4.825-2.12l2.077-2.272c1.082.923 2.258 1.384 3.527 1.384.591 0 1.031-.115 1.32-.346a1.11 1.11 0 0 0 .454-.93c0-.289-.065-.527-.195-.714-.13-.202-.36-.382-.692-.541-.317-.159-.793-.339-1.428-.541-1.659-.52-2.82-1.147-3.484-1.882-.649-.736-.973-1.652-.973-2.748 0-1.14.382-2.085 1.146-2.835.78-.75 1.804-1.226 3.073-1.428V1.192h2.92v3.246c1.472.23 2.698.837 3.68 1.817L21.77 8.462c-.966-.764-1.99-1.146-3.072-1.146-.505 0-.887.093-1.147.28a.833.833 0 0 0-.39.737c0 .245.073.447.217.605.144.159.382.31.714.455.346.144.895.332 1.645.562 1.5.49 2.582 1.097 3.245 1.818.678.721 1.017 1.71 1.017 2.964Z"/></svg>