<svg viewBox="0 0 24 24" xmlns="http://www.w3.org/2000/svg"><path d="M4 0c-.275 0-.5.225-.5.5v1.9h3V.5C6.5.225 6.275 0 6 0H4Zm13.5 2.4h3V.5c0-.275-.225-.5-.5-.5h-2c-.275 0-.5.225-.5.5v1.9ZM5 11.75c0-.415.335-.75.75-.75h1.5a.749.749 0 1 1 0 1.5h-1.5a.749.749 0 0 1-.75-.75Zm7.75-.75h-1.5a.749.749 0 1 0 0 1.5h1.5a.749.749 0 1 0 0-1.5Zm3.25.75c0-.415.335-.75.75-.75h1.5a.749.749 0 1 1 0 1.5h-1.5a.749.749 0 0 1-.75-.75ZM5.75 14.5a.749.749 0 1 0 0 1.5h1.5a.749.749 0 1 0 0-1.5h-1.5Zm5.5 0h1.5a.749.749 0 1 1 0 1.5h-1.5a.749.749 0 1 1 0-1.5Zm5.5 0a.749.749 0 1 0 0 1.5h1.5a.749.749 0 1 0 0-1.5h-1.5ZM5 18.75c0-.415.335-.75.75-.75h1.5a.749.749 0 1 1 0 1.5h-1.5a.749.749 0 0 1-.75-.75Zm7.75-.75h-1.5a.749.749 0 1 0 0 1.5h1.5a.749.749 0 1 0 0-1.5Zm3.25.75c0-.415.335-.75.75-.75h1.5a.749.749 0 1 1 0 1.5h-1.5a.749.749 0 0 1-.75-.75Z"/><path fill-rule="evenodd" clip-rule="evenodd" d="M20.5 3.4h-17a2.389 2.389 0 0 0-2.29 2.4L1.2 21.6A2.4 2.4 0 0 0 3.6 24h16.8c1.32 0 2.4-1.08 2.4-2.4V5.8a2.411 2.411 0 0 0-2.3-2.4ZM3.5 10c0-.55.45-1 1-1h15c.55 0 1 .45 1 1v10.5c0 .55-.45 1-1 1h-15c-.55 0-1-.45-1-1V10Z"/></svg>