<svg viewBox="0 0 25 24" xmlns="http://www.w3.org/2000/svg"><path d="m22.282 2.64-2.35-.33c.08.28.14.58.14.89v15.56c0 1.76-1.43 3.19-3.2 3.19h-.56l3.19.45c1.2.17 2.32-.67 2.49-1.87l2.17-15.41c.17-1.2-.67-2.31-1.87-2.48h-.01Z"/><path d="m14.892 3.03 2.17 15.41c.13.94-.17 1.84-.74 2.51h.55c1.22 0 2.2-.98 2.2-2.19V3.19c0-1.21-.99-2.19-2.2-2.19h-3.15c.61.49 1.05 1.2 1.17 2.03Z"/><path d="M13.902 3.17a2.202 2.202 0 0 0-2.49-1.87l-9.51 1.34a2.198 2.198 0 0 0-1.88 2.48l2.17 15.41c.17 1.2 1.28 2.04 2.49 1.87l9.51-1.33c1.2-.17 2.04-1.28 1.87-2.48l-2.17-15.41.01-.01Zm-1.88 6.8-1.23 1.58c-.18.23-.25.64-.16.92l.61 1.9c.09.28-.06.42-.34.32l-1.88-.67c-.27-.1-.69-.04-.93.13l-1.63 1.17c-.24.17-.42.07-.41-.22l.06-2c0-.29-.18-.67-.41-.84l-1.61-1.18c-.24-.17-.2-.38.08-.46l1.92-.56c.28-.08.58-.37.67-.65l.63-1.9c.09-.28.3-.31.46-.06l1.13 1.65c.16.24.54.44.83.44h2c.29.01.38.2.21.43Z"/></svg>