<svg viewBox="0 0 24 24" xmlns="http://www.w3.org/2000/svg"><path fill-rule="evenodd" clip-rule="evenodd" d="M5.297 24h3.375v-3.75c0-.388.315-.703.703-.703h5.25c.388 0 .703.315.703.703V24h3.375V.703A.703.703 0 0 0 18 0H6a.703.703 0 0 0-.703.703V24Zm4.828-7.547h-.75a.703.703 0 0 1 0-1.406h.75a.703.703 0 0 1 0 1.406Zm0-3h-.75a.703.703 0 0 1 0-1.406h.75a.703.703 0 0 1 0 1.406Zm0-3h-.75a.703.703 0 0 1 0-1.406h.75a.703.703 0 0 1 0 1.406Zm0-3h-.75a.703.703 0 0 1 0-1.406h.75a.703.703 0 0 1 0 1.406Zm4.5 9h-.75a.703.703 0 0 1 0-1.406h.75a.703.703 0 0 1 0 1.406Zm0-3h-.75a.703.703 0 0 1 0-1.406h.75a.703.703 0 0 1 0 1.406Zm0-3h-.75a.703.703 0 0 1 0-1.406h.75a.703.703 0 0 1 0 1.406Zm0-3h-.75a.703.703 0 0 1 0-1.406h.75a.703.703 0 0 1 0 1.406ZM9 3.047h6a.703.703 0 0 1 0 1.406H9a.703.703 0 0 1 0-1.406Z"/><path d="M2.953 17.297h.938V24H.703A.703.703 0 0 1 0 23.297V18c0-.388.315-.703.703-.703h.844V15.75a.703.703 0 0 1 1.406 0v1.547Zm19.5 0h.844c.388 0 .703.315.703.703v5.297a.703.703 0 0 1-.703.703h-3.188v-6.703h.938V15.75a.703.703 0 0 1 1.406 0v1.547ZM13.922 24h-3.844v-3.047h3.844V24Z"/></svg>