<svg viewBox="0 0 24 24" xmlns="http://www.w3.org/2000/svg"><path fill-rule="evenodd" clip-rule="evenodd" d="M15.41 17.418c5.774-1.441 8.928-6.192 7.045-10.61C20.57 2.389 14.364-.024 8.59 1.418c-5.774 1.44-8.928 6.19-7.045 10.61 1.884 4.418 8.091 6.831 13.865 5.39ZM15.301 6.58c.856.173 1.596.756 1.918 1.513.331.776.167 1.6-.424 2.125l-3.232 2.865-4.819-.856c-.88-.156-1.649-.748-1.98-1.524-.322-.757-.174-1.562.384-2.088l3.218-3.032 4.935.997Z"/><path d="M1.043 15.323a6.75 6.75 0 0 0 .502 1.87c1.884 4.418 8.091 6.831 13.866 5.39 4.106-1.025 6.887-3.724 7.473-6.786-1.624 1.742-3.922 3.069-6.574 3.73-5.427 1.355-11.802-.204-15.267-4.204Z"/></svg>