<svg viewBox="0 0 24 24" xmlns="http://www.w3.org/2000/svg"><path d="M16.972 15.656c.993-.304 1.937-.627 2.734-1.268.122-.098.232-.214.336-.331.322-.364.404-.79.301-1.258-.097-.446-.361-.665-.817-.695-.42-.028-.82.069-1.22.183-.145.04-.2.115-.216.264a6.897 6.897 0 0 1-1.037 2.957 1.22 1.22 0 0 0-.05.09 8.666 8.666 0 0 1-.031.058Z"/><path fill-rule="evenodd" clip-rule="evenodd" d="M12 24c6.627 0 12-5.373 12-12S18.627 0 12 0 0 5.373 0 12s5.373 12 12 12Zm-.147-17.706a2.17 2.17 0 0 0-.427 1.305c-.003.493.13.943.43 1.337.14.182.357.22.525.102.175-.122.203-.34.08-.541l-.024-.04a1.698 1.698 0 0 1-.19-.377 1.493 1.493 0 0 1 .239-1.388c.57-.777.573-1.866.017-2.614-.153-.206-.36-.255-.544-.129-.18.124-.208.347-.07.554.385.576.375 1.229-.036 1.79Zm3.778 10.843-.197.183h1.174c1.116 0 2.232 0 3.348-.002.18 0 .323.058.396.228.075.17.022.318-.108.443l-.012.012-.249.25c-.184.185-.369.37-.556.554-.512.5-1.13.753-1.844.754-3.855.002-7.71.002-11.565 0a2.536 2.536 0 0 1-1.806-.717c-.198-.188-.39-.382-.583-.576l-.274-.275c-.126-.125-.187-.268-.11-.442.074-.17.213-.231.394-.23H8.17l-.143-.123a8.674 8.674 0 0 1-.253-.225c-1.51-1.401-2.28-3.135-2.322-5.193a21.101 21.101 0 0 1 0-.822 1.111 1.111 0 0 1 1.074-1.098h.002l.068-.001H9.37c2.54 0 5.08-.001 7.621.001.674 0 1.141.469 1.157 1.142a7.485 7.485 0 0 1 .001.35v.186c.077-.016.152-.035.226-.053.162-.04.32-.078.479-.091.311-.026.633-.051.938-.004.73.113 1.187.626 1.307 1.357.135.823-.135 1.49-.73 2.046-.611.571-1.343.947-2.122 1.22-.393.136-.794.248-1.196.36-.226.062-.453.125-.678.192-.1.03-.2.087-.28.155-.154.132-.303.271-.461.419Zm-5.382-10.44a2.17 2.17 0 0 0 .427-1.322 2.118 2.118 0 0 0-.44-1.335c-.137-.178-.355-.208-.525-.082-.16.118-.192.33-.08.515l.05.08c.054.087.11.175.144.27.195.537.116 1.034-.226 1.5-.558.758-.548 1.875.008 2.598.146.19.363.239.535.12.18-.124.21-.349.072-.554-.386-.578-.375-1.228.035-1.79Zm3.849-.406c-.29.395-.43.834-.43 1.322a2.12 2.12 0 0 0 .43 1.32c.138.183.354.224.523.108.177-.121.21-.342.085-.54a4.628 4.628 0 0 0-.035-.056 1.44 1.44 0 0 1-.15-.278c-.19-.524-.128-1.015.206-1.471.572-.78.574-1.89.011-2.628-.153-.201-.366-.244-.547-.111-.17.125-.194.342-.06.543.386.583.377 1.231-.033 1.79Z"/></svg>