<svg viewBox="0 0 24 24" xmlns="http://www.w3.org/2000/svg"><path fill-rule="evenodd" clip-rule="evenodd" d="M24 12.028C24 18.635 18.648 24 12 24 5.408 24 0 18.635 0 11.972.056 5.365 5.408 0 12 0c6.648 0 12 5.365 12 12.028Zm-13.86 6.043H6.649a.506.506 0 0 1-.507-.508V6.438c0-.282.225-.508.507-.508h3.493c.281 0 .507.226.507.508v11.125a.506.506 0 0 1-.507.508Zm3.72.056h3.492c.282 0 .507-.226.507-.564V6.438a.506.506 0 0 0-.507-.508h-3.493a.505.505 0 0 0-.507.508v11.181c0 .282.225.508.507.508Z"/></svg>