<svg viewBox="0 0 24 24" xmlns="http://www.w3.org/2000/svg"><path d="M8.1 4.8a1.5 1.5 0 0 1 2.1.3l4.493 5.99.032.044a1.496 1.496 0 0 1 0 1.733 1.492 1.492 0 0 1-.403.388l-4.49 2.993a1.5 1.5 0 0 1-1.664-2.496l3.18-2.12L7.8 6.9a1.5 1.5 0 0 1 .3-2.1Zm-6.178 6.979a.75.75 0 0 1 .75-.75h1.336a.75.75 0 0 1 0 1.5H2.672a.75.75 0 0 1-.75-.75ZM20 11.029a.75.75 0 0 0 0 1.5h1.336a.75.75 0 0 0 0-1.5H20Zm-8-9.112a.75.75 0 0 1 .75.75v1.327a.75.75 0 0 1-1.5 0V2.667a.75.75 0 0 1 .75-.75ZM12.75 20a.75.75 0 0 0-1.5 0v1.327a.75.75 0 1 0 1.5 0V20Z"/><path fill-rule="evenodd" clip-rule="evenodd" d="M12 0C5.408 0 0 5.352 0 12c0 6.591 5.352 12 12 12 6.591 0 12-5.352 12-12-.056-6.648-5.409-12-12-12Zm0 1.127c6.028 0 10.873 4.901 10.873 10.873 0 6.028-4.901 10.873-10.873 10.873-6.028 0-10.873-4.901-10.873-10.873A10.844 10.844 0 0 1 12 1.127Z"/></svg>