<svg viewBox="0 0 24 24" xmlns="http://www.w3.org/2000/svg"><path fill-rule="evenodd" clip-rule="evenodd" d="M19 11a5 5 0 1 0 0-10 5 5 0 0 0 0 10Zm.759-5.781h.96a.781.781 0 0 1 0 1.562h-.96v.96a.759.759 0 0 1-1.518 0v-.96h-.96a.781.781 0 0 1 0-1.562h.96v-.96a.759.759 0 0 1 1.518 0v.96Z"/><path d="M13.506 3.124c-3.135-.313-6.636-.032-9.064.844C2.909 4.528 2 5.202 2 5.875s.909 1.347 2.442 1.908c2.397.864 5.841 1.15 8.946.855A6.177 6.177 0 0 1 12.8 6a6.17 6.17 0 0 1 .706-2.876Zm.513 6.568c-3.397.384-7.261.103-9.975-.843C3.192 8.512 2.511 8.175 2 7.783v2.86c0 .674.909 1.347 2.442 1.908 3.577 1.29 9.482 1.29 13.116 0 .318-.12.612-.246.878-.376a6.193 6.193 0 0 1-4.417-2.483ZM4.044 18.33c3.861 1.402 10.05 1.402 13.912 0A8.68 8.68 0 0 0 20 17.264v2.86c0 .674-.965 1.347-2.442 1.908-3.634 1.29-9.54 1.29-13.116 0C2.909 21.472 2 20.798 2 20.125v-2.861a6.896 6.896 0 0 0 2.044 1.066Z"/><path d="M4.044 13.561c3.861 1.402 10.05 1.402 13.912 0 .795-.28 1.476-.617 2.044-1.01v2.805c0 .73-.965 1.403-2.442 1.908-3.634 1.29-9.54 1.29-13.116 0C2.909 16.759 2 16.086 2 15.356v-2.805c.511.393 1.192.73 2.044 1.01Z"/></svg>