<svg viewBox="0 0 24 24" xmlns="http://www.w3.org/2000/svg"><path d="M22.075 13.312c-1.065 0-1.925.86-1.925 1.925v4.914H3.85v-4.914c0-1.065-.86-1.925-1.925-1.925S0 14.172 0 15.237v6.838C0 23.14.86 24 1.925 24h20.15C23.14 24 24 23.14 24 22.075v-6.838c0-1.065-.86-1.925-1.925-1.925Z"/><path d="m16.075 6.948-2.15 2.149V1.925C13.925.86 13.065 0 12 0s-1.925.86-1.925 1.925v7.172l-2.15-2.15a1.91 1.91 0 0 0-1.36-.564c-.495 0-.989.186-1.36.565a1.922 1.922 0 0 0 0 2.72l5.434 5.434c.751.75 1.97.75 2.721 0l5.436-5.434a1.924 1.924 0 0 0-2.721-2.72Z"/></svg>