<svg viewBox="0 0 24 24" xmlns="http://www.w3.org/2000/svg"><path fill-rule="evenodd" clip-rule="evenodd" d="M16.615 10.2h1.847V8.4h-1.847v1.8Zm3.693 0h-1.846V12h-1.847v-1.8H14.77V8.4h1.846V6.6h1.847v1.8h1.846v1.8Zm-11.077 0H7.385V12c0 .497-.414.9-.923.9a.912.912 0 0 1-.924-.9v-1.8H3.692a.912.912 0 0 1-.923-.9c0-.497.414-.9.923-.9h1.846V6.6c0-.497.414-.9.924-.9s.923.403.923.9v1.8H9.23c.51 0 .923.403.923.9s-.414.9-.923.9Zm14.743-.659c.004-.083.026-.16.026-.245C24 5.817 21.109 3 17.537 3a6.52 6.52 0 0 0-4.514 1.8h-2.048A6.52 6.52 0 0 0 6.463 3C3.098 3 .363 5.515.06 8.719L.013 8.7v.475c-.002.04-.013.079-.013.12 0 .042.011.081.013.121v8.294c-.002.04-.013.08-.013.121C0 19.583 1.455 21 3.251 21c1.252 0 2.328-.7 2.869-1.712l4.89-5.488h1.952l5.009 5.675A3.25 3.25 0 0 0 20.734 21c1.796 0 3.251-1.417 3.251-3.168 0-.034-.009-.068-.01-.104V9.54Z"/></svg>