<svg viewBox="0 0 24 24" xmlns="http://www.w3.org/2000/svg"><path d="M22.799 21.598a1.201 1.201 0 0 1 0 2.402H1.2a1.201 1.201 0 0 1 0-2.402h21.6Zm-2.203-16.02c.246-.256.383-.6.383-.96s-.137-.706-.383-.96L16.986.382A1.318 1.318 0 0 0 16.06 0c-.344 0-.675.137-.925.383l-1.204 1.254 5.457 5.176 1.208-1.236ZM2.42 19.387l5.627-.86a.433.433 0 0 0 .174-.109L18.755 7.47l-5.457-5.175-10.551 10.93a.456.456 0 0 0-.105.182l-.772 5.412a.47.47 0 0 0 .068.416.44.44 0 0 0 .368.177.469.469 0 0 0 .114-.022Z"/></svg>