<svg viewBox="0 0 24 24" xmlns="http://www.w3.org/2000/svg"><path d="M9.997 15.703c.592 1.876 1.895 2.814 3.91 2.814.73 0 1.471-.109 2.221-.326a9.97 9.97 0 0 0 2.193-.977v4.295c-.87.395-1.689.671-2.46.83-.75.177-1.56.266-2.428.266-2.43 0-4.453-.612-6.073-1.837-1.62-1.224-2.696-2.913-3.229-5.065H1.613l.74-2.814h1.63V11.11h-2.37l.74-2.814H4.19c.632-2.113 1.798-3.792 3.496-5.036 1.698-1.244 3.673-1.866 5.925-1.866 1.224 0 2.29.158 3.199.474.928.316 1.787.73 2.577 1.244L17.373 6.55c-1.047-.73-2.232-1.096-3.555-1.096-.869 0-1.63.247-2.281.74-.652.475-1.146 1.176-1.481 2.104h6.902l-.74 2.814h-6.43v1.778h6.043l-.74 2.814H9.997Z"/></svg>