<svg viewBox="0 0 24 24" xmlns="http://www.w3.org/2000/svg"><g clip-path="url(#clip0_2767_362)"><path d="M8.565 3.84 1.253 0C.614.239 0 1.022 0 1.927v16.392c0 .717.352 1.364.942 1.758l5.625 3.568c1.345.915 3.277-.033 3.277-1.758V5.794c0-.83-.464-1.547-1.28-1.955Zm-1.533 9.566a.703.703 0 1 1-1.406 0v-2.812a.703.703 0 1 1 1.406 0v2.812Zm16.69-1.966-4.944-3.451a.703.703 0 0 0-1.2.497v2.108h-5.625a.703.703 0 0 0-.703.703v1.406c0 .388.315.703.703.703h5.625v2.108c0 .627.758.94 1.2.497l4.944-3.451a.703.703 0 0 0 0-1.12Z"/><path d="M11.25 14.813v6.374h2.11a2.111 2.111 0 0 0 2.109-2.109v-4.265H11.25ZM13.36 0H4.276L9.19 2.58l.003.001.025.013c1.263.631 2.032 1.832 2.032 3.2v3.394h4.219V2.109A2.111 2.111 0 0 0 13.359 0Z"/></g><defs><clipPath id="clip0_2767_362"><path d="M0 0h24v24H0z"/></clipPath></defs></svg>