<svg viewBox="0 0 24 24" xmlns="http://www.w3.org/2000/svg"><path d="M.999 3c0-.943 0-1.414.293-1.707C1.585 1 2.056 1 2.999 1h5.5c.466 0 .699 0 .883.076a1 1 0 0 1 .54.541c.077.184.077.417.077.883s0 .699-.076.883a1 1 0 0 1-.541.54C9.198 4 8.965 4 8.499 4h-2.5c-.943 0-1.414 0-1.707.293-.293.293-.293.764-.293 1.707v2.5c0 .466 0 .699-.076.883a1 1 0 0 1-.541.54C3.198 10 2.965 10 2.499 10s-.699 0-.883-.076a1 1 0 0 1-.54-.541C.998 9.199.998 8.966.998 8.5V3Zm1.5 11c-.466 0-.699 0-.883.076a1 1 0 0 0-.54.541c-.077.184-.077.417-.077.883V21c0 .943 0 1.414.293 1.707.293.293.764.293 1.707.293h5.5c.466 0 .699 0 .883-.076a1 1 0 0 0 .54-.541c.077-.184.077-.417.077-.883s0-.699-.076-.883a1 1 0 0 0-.541-.54C9.198 20 8.965 20 8.499 20h-2.5c-.943 0-1.414 0-1.707-.293-.293-.293-.293-.764-.293-1.707v-2.5c0-.466 0-.699-.076-.883a1 1 0 0 0-.541-.54C3.198 14 2.965 14 2.499 14Zm19 0c-.466 0-.699 0-.883.076a1 1 0 0 0-.54.541c-.077.184-.077.417-.077.883V18c0 .943 0 1.414-.293 1.707C19.413 20 18.942 20 18 20h-2.5c-.466 0-.699 0-.883.076a1 1 0 0 0-.54.541c-.077.184-.077.417-.077.883s0 .699.076.883a1 1 0 0 0 .541.54c.184.077.417.077.883.077H21c.943 0 1.414 0 1.707-.293C23 22.414 23 21.943 23 21v-5.5c0-.466 0-.699-.076-.883a1 1 0 0 0-.541-.54C22.198 14 21.965 14 21.499 14Zm0-4c.466 0 .699 0 .883-.076a1 1 0 0 0 .54-.541C23 9.199 23 8.966 23 8.5V3c0-.943 0-1.414-.293-1.707C22.413 1 21.942 1 21 1h-5.5c-.466 0-.699 0-.883.076a1 1 0 0 0-.54.541C14 1.801 14 2.034 14 2.5s0 .699.076.883a1 1 0 0 0 .541.54C14.8 4 15.033 4 15.5 4H18c.943 0 1.414 0 1.707.293C20 4.586 20 5.057 20 6v2.5c0 .466 0 .699.076.883a1 1 0 0 0 .541.54c.184.077.417.077.883.077Z"/></svg>