<svg viewBox="0 0 24 24" xmlns="http://www.w3.org/2000/svg"><path d="M10 8c0 .943 0 1.414-.293 1.707C9.414 10 8.942 10 8 10H2.5c-.466 0-.7 0-.883-.076a1 1 0 0 1-.541-.541C1 9.199 1 8.966 1 8.5s0-.699.076-.883a1 1 0 0 1 .54-.54C1.802 7 2.035 7 2.5 7H5c.942 0 1.414 0 1.707-.293C7 6.414 7 5.943 7 5V2.5c0-.466 0-.699.076-.883a1 1 0 0 1 .54-.54C7.802 1 8.035 1 8.5 1s.698 0 .882.076a1 1 0 0 1 .541.541c.077.184.077.417.077.883V8Zm4 0c0 .943 0 1.414.292 1.707.293.293.765.293 1.707.293h5.5c.466 0 .7 0 .883-.076a1 1 0 0 0 .541-.541C23 9.199 23 8.966 23 8.5s0-.699-.077-.883a1 1 0 0 0-.54-.54C22.197 7 21.964 7 21.5 7H19c-.943 0-1.415 0-1.708-.293C17 6.414 17 5.943 17 5V2.5c0-.466 0-.699-.076-.883a1 1 0 0 0-.54-.54C16.197 1 15.965 1 15.5 1s-.7 0-.883.076a1 1 0 0 0-.541.541c-.077.184-.077.417-.077.883V8Zm-6 6c.942 0 1.414 0 1.707.293.293.293.293.764.293 1.707v5.5c0 .466 0 .699-.077.883a1 1 0 0 1-.54.54C9.197 23 8.964 23 8.5 23c-.466 0-.7 0-.883-.076a1 1 0 0 1-.541-.541C7 22.199 7 21.966 7 21.5V19c0-.943 0-1.414-.293-1.707C6.414 17 5.942 17 5 17H2.5c-.466 0-.7 0-.883-.076a1 1 0 0 1-.541-.541C1 16.199 1 15.966 1 15.5s0-.699.076-.883a1 1 0 0 1 .54-.54C1.802 14 2.035 14 2.5 14H8Zm8 0c-.943 0-1.415 0-1.708.293C14 14.586 14 15.057 14 16v5.5c0 .466 0 .699.077.883a1 1 0 0 0 .54.54c.185.077.418.077.883.077.466 0 .7 0 .883-.076a1 1 0 0 0 .541-.541c.077-.184.077-.417.077-.883V19c0-.943 0-1.414.292-1.707C17.585 17 18.057 17 19 17h2.5c.466 0 .7 0 .883-.076a1 1 0 0 0 .541-.541c.077-.184.077-.417.077-.883s0-.699-.077-.883a1 1 0 0 0-.54-.54C22.197 14 21.964 14 21.5 14H16Z"/></svg>