<svg viewBox="0 0 24 24" xmlns="http://www.w3.org/2000/svg"><g clip-path="url(#clip0_51487_67359)"><path fill-rule="evenodd" clip-rule="evenodd" d="M23.405 6.336c2.055 4.82-1.386 10.002-7.685 11.574C9.421 19.483 2.65 16.85.595 12.03-1.46 7.21 1.98 2.027 8.28.455c6.299-1.572 13.07 1.06 15.125 5.88ZM.595 17.664a7.364 7.364 0 0 1-.548-2.039c3.78 4.363 10.735 6.065 16.655 4.587 2.893-.722 5.4-2.17 7.172-4.07-.64 3.34-3.674 6.285-8.153 7.403-6.3 1.572-13.071-1.06-15.126-5.88ZM17.982 4.677l-.85 1.272c-.355.532-1.01.86-1.721.86H5.824c-.096 0-.156-.09-.108-.162l.85-1.272c.355-.532 1.011-.86 1.721-.86h9.587c.096 0 .156.09.108.162Zm-2.764 4.137.85-1.272c.047-.071-.013-.161-.109-.161h-4.877c-1.098 0-1.988.77-1.988 1.72v4.79c0 .083.103.135.186.093l1.47-.734c.616-.307.995-.874.995-1.489v-1.98c0-.06.056-.107.124-.107h1.627c.71 0 1.367-.328 1.722-.86Z"/></g><defs><clipPath id="clip0_51487_67359"><path d="M0 0h24v24H0z"/></clipPath></defs></svg>