<svg viewBox="0 0 24 24" xmlns="http://www.w3.org/2000/svg"><path d="M21.723 2.001a2.255 2.255 0 0 0-2.156 2.153 2.246 2.246 0 0 0 1.51 2.153v3.54h-2.541v-7.88A1.912 1.912 0 0 0 16.619.054H3.917A1.919 1.919 0 0 0 2 1.967v20.12a1.887 1.887 0 0 0 1.18 1.774 1.9 1.9 0 0 0 .737.139H16.62a1.919 1.919 0 0 0 1.917-1.914V13.58h2.787c.658 0 1.191-.529 1.191-1.181v-6.09a2.228 2.228 0 0 0 1.312-2.965A2.201 2.201 0 0 0 21.723 2ZM8.734 8.604h3.044v5.932H8.734V8.604Zm-4.553 0h3.044v5.932H4.18V8.604Zm12.15 12.98H4.181v-5.23h12.15v5.23Zm0-7.048h-3.043V8.604h3.043v5.932Z"/></svg>