<svg viewBox="0 0 24 24" xmlns="http://www.w3.org/2000/svg"><g clip-path="url(#clip0_3992_96978)"><path d="M11.438 11.118c-.369.213-.556.584-.356 1.15l1.407-.812c-.228-.393-.56-.621-1.051-.338Zm0 0c-.369.213-.556.584-.356 1.15l1.407-.812c-.228-.393-.56-.621-1.051-.338ZM17 0l-5.743 3.331-1.915 3.1-3.657.117L0 10v14h6.421l6.936-4.069 2.156-2.574 3.512-.698L24 13.64V0h-7ZM9.904 16.694l-1.694.977-2.91-1.888-1.374-.992-.04.024c.475.635 1.112 1.422 1.536 2.157l1 1.732-1.57.907-3.448-5.971 1.68-.97L6 14.538l1.36 1 .041-.024c-.44-.604-1.098-1.43-1.523-2.166l-.992-1.719 1.57-.907 3.448 5.972Zm4.469-5.065-2.732 1.577c.491.504 1.02.443 1.553.135.328-.189.576-.454.825-.843l1.078.637a3.9 3.9 0 0 1-1.445 1.534c-1.393.805-2.966.54-3.845-.982-.864-1.496-.274-3.061.9-3.74 1.42-.82 2.666-.208 3.378 1.026.159.275.254.535.288.656Zm7.932-2.095-1.913 1.104-1.265-1.404a46.364 46.364 0 0 1-1.013-1.218l-.04.024c.226.551.414 1.003.575 1.47l.596 1.79-1.87 1.08-3.8-3.93 1.625-.94 1.483 1.716c.333.42.64.856.994 1.281l.027-.016c-.19-.52-.389-1.052-.53-1.548l-.676-2.182 1.393-.804 1.578 1.66c.374.397.721.81 1.09 1.226l.04-.023c-.204-.512-.428-.995-.611-1.502l-.745-2.142 1.502-.867 1.56 5.224Zm-10.867 1.584c-.369.213-.556.584-.356 1.15l1.407-.812c-.228-.393-.56-.621-1.051-.338Z"/></g><defs><clipPath id="clip0_3992_96978"><path d="M0 0h24v24H0z"/></clipPath></defs></svg>