<svg xmlns="http://www.w3.org/2000/svg" viewBox="0 0 24 24"><path d="M9.729 1.333a10.732 10.732 0 0 1 4.19-.222 10.68 10.68 0 0 1 4.409 1.69 10.548 10.548 0 0 1 3.23 3.415 10.395 10.395 0 0 1 .721 9.089 10.495 10.495 0 0 1-2.652 3.87 10.646 10.646 0 0 1-4.088 2.35c-1.524.47-3.135.593-4.714.362a10.688 10.688 0 0 1-4.405-1.699 1.32 1.32 0 0 1-.584-1.056 1.302 1.302 0 0 1 .531-1.084 1.324 1.324 0 0 1 1.527-.038 8.031 8.031 0 0 0 4.864 1.36 8.015 8.015 0 0 0 4.711-1.809 7.865 7.865 0 0 0 2.663-4.248 7.797 7.797 0 0 0-.457-4.977 7.909 7.909 0 0 0-3.394-3.703 8.04 8.04 0 0 0-4.964-.938A8 8 0 0 0 6.78 5.899 7.846 7.846 0 0 0 4.5 10.36a2.648 2.648 0 0 0-.027.218l1.48-.153a.41.41 0 0 1 .337.3.4.4 0 0 1-.152.424L2.9 14.663a.412.412 0 0 1-.567-.075L.086 10.239a.402.402 0 0 1 .145-.612.413.413 0 0 1 .237-.036l1.38.606A10.42 10.42 0 0 1 3.18 6.26a10.536 10.536 0 0 1 2.772-3.117 10.667 10.667 0 0 1 3.776-1.81Z"/><path d="M13.074 5.906a1.294 1.294 0 0 1 .906.372 1.266 1.266 0 0 1 .375.896v5.34h-.017l-4.335 3.148a1.292 1.292 0 0 1-1.792-.272 1.256 1.256 0 0 1 .275-1.771l3.307-2.401V7.174a1.255 1.255 0 0 1 .375-.896 1.282 1.282 0 0 1 .906-.372Z"/></svg>