<svg viewBox="0 0 24 24" xmlns="http://www.w3.org/2000/svg"><path d="M20.884 16.535c.204.218.388.409.549.57.162.162.335.319.52.47.186.153.322.229.407.229.162 0 .476-.233.941-.699.466-.465.699-.78.699-.941 0-.076-.136-.27-.407-.585-.27-.313-.617-.684-1.04-1.112a101.23 101.23 0 0 0-1.234-1.226c-.4-.39-.789-.768-1.17-1.134-.38-.366-.598-.578-.655-.635a.45.45 0 0 0-.328-.142c-.162 0-.476.233-.941.698-.466.466-.699.78-.699.942 0 .085.076.22.228.406.152.185.31.36.47.52.162.162.353.345.571.55.219.204.342.32.37.35l-1.368 1.368-5.063-5.062c1.246-1.673 1.869-3.408 1.869-5.205 0-1.55-.488-2.812-1.462-3.786-.975-.975-2.236-1.462-3.786-1.462-1.521 0-3.01.452-4.464 1.354A10.84 10.84 0 0 0 1.355 5.54C.452 6.995 0 8.482 0 10.004c0 1.55.487 2.81 1.462 3.786.974.974 2.236 1.462 3.786 1.462 1.797 0 3.531-.623 5.205-1.869l9.568 9.569c.267.266.59.4.97.4.4 0 .785-.186 1.155-.557.37-.371.556-.756.556-1.155 0-.38-.133-.704-.399-.97l-3.137-3.137 1.369-1.37c.028.03.145.153.349.372Zm-9.818-8.47a2.64 2.64 0 0 1-1.94.798c-.399 0-.793-.09-1.183-.271.18.39.271.784.271 1.183a2.64 2.64 0 0 1-.799 1.94 2.641 2.641 0 0 1-1.939.798 2.64 2.64 0 0 1-1.94-.798 2.64 2.64 0 0 1-.798-1.94c0-.76.266-1.407.799-1.939a2.64 2.64 0 0 1 1.939-.798c.4 0 .794.09 1.183.27-.18-.39-.27-.784-.27-1.183 0-.76.266-1.407.798-1.94a2.641 2.641 0 0 1 1.94-.798c.76 0 1.407.266 1.939.798a2.64 2.64 0 0 1 .798 1.94c0 .76-.266 1.407-.798 1.94Z"/></svg>