<svg viewBox="0 0 8 17" xmlns="http://www.w3.org/2000/svg"><path fill-rule="evenodd" clip-rule="evenodd" d="M6.99 14.613h.002c-1.126 1.232-2.372 1.357-2.78 1.381-.861.032-1.763-.053-2.491-.596l-.353-.262.388-.228c.883-.518 1.817-.984 2.804-.919.778.075 1.552.224 2.272.553l.01.005.008.005a.621.621 0 0 0 .14.06ZM4.088 5.2c-.015-2.027 1.07-3.955 2.55-4.983L6.949 0l.035.417c.17 2.037-1.057 4.06-2.557 5.014l-.337.214-.003-.444Zm-3.84 5.444c1.89-.046 3.89.817 4.837 2.803l.189.396-.39.03c-1.9.152-4.362-.44-4.883-3.229h.247ZM.35 5.71c-.078 2.19.876 4.579 2.641 5.364l.327.145.001-.421c.005-2.209-.947-4.382-2.622-5.343l-.33-.19-.017.445Zm2.33 1.47c-.8-1.8-.656-4.109.316-5.88l.222-.403.184.408c.811 1.8.622 4.092-.312 5.875l-.221.423-.189-.423Z"/></svg>