<svg viewBox="0 0 24 24" xmlns="http://www.w3.org/2000/svg"><path d="M11.953.75C5.362.75 0 5.481 0 11.297c0 2.457.972 4.837 2.742 6.724a4.276 4.276 0 0 1-1.13 4.029.704.704 0 0 0 .497 1.2 7.752 7.752 0 0 0 5.37-2.17 13.26 13.26 0 0 0 4.474.764C18.544 21.844 24 17.113 24 11.297 24 5.48 18.544.75 11.953.75ZM6.422 13.406a2.112 2.112 0 0 1-2.11-2.11c0-1.162.947-2.108 2.11-2.108 1.163 0 2.11.946 2.11 2.109s-.947 2.11-2.11 2.11Zm5.625 0a2.112 2.112 0 0 1-2.11-2.11c0-1.162.947-2.108 2.11-2.108 1.163 0 2.11.946 2.11 2.109s-.947 2.11-2.11 2.11Zm5.625 0a2.112 2.112 0 0 1-2.11-2.11c0-1.162.947-2.108 2.11-2.108 1.163 0 2.11.946 2.11 2.109s-.947 2.11-2.11 2.11Z"/></svg>