<svg viewBox="0 0 20 20" xmlns="http://www.w3.org/2000/svg"><path d="M10.001 1.667a.833.833 0 0 1 .834.833V5a.834.834 0 0 1-1.667 0V2.5a.833.833 0 0 1 .833-.833Zm0 12.5a.833.833 0 0 1 .834.833v2.5a.834.834 0 1 1-1.667 0V15a.833.833 0 0 1 .833-.834ZM18.335 10a.834.834 0 0 1-.834.833h-2.5a.833.833 0 0 1 0-1.667h2.5a.833.833 0 0 1 .834.834Zm-12.5 0a.833.833 0 0 1-.834.833h-2.5a.833.833 0 1 1 0-1.667h2.5a.833.833 0 0 1 .834.834Zm10.059 5.892a.833.833 0 0 1-1.178 0l-1.768-1.767a.833.833 0 0 1 1.178-1.178l1.768 1.766a.835.835 0 0 1 0 1.18Zm-8.84-8.839a.833.833 0 0 1-1.178 0L4.11 5.287a.833.833 0 1 1 1.178-1.18l1.767 1.768a.833.833 0 0 1 0 1.178Zm-2.944 8.84a.833.833 0 0 1 0-1.179l1.767-1.768a.832.832 0 0 1 1.433.587.833.833 0 0 1-.255.592L5.29 15.892a.832.832 0 0 1-1.18 0Zm8.838-8.84a.833.833 0 0 1 0-1.178l1.767-1.768a.834.834 0 0 1 1.179 1.179l-1.768 1.767a.833.833 0 0 1-1.178 0Z"/></svg>