<svg viewBox="0 0 24 24" xmlns="http://www.w3.org/2000/svg"><path d="M9.27 5.597h5.548l.508-.756c.414-.652.87-1.277 1.265-1.943.187-.316.539-.833.4-1.234-.099-.286-.351-.383-.622-.433-.196-.036-1.197-.3-1.601-.214-.359.077-.69.255-1.034.38-.485.176-1.021.323-1.553.293-.459-.026-.98-.088-1.414-.251-.358-.136-.705-.336-1.085-.404-.328-.058-1.522.115-1.762.158-1.691.304-.462 1.648.843 3.648l.507.756Zm12.223 10.6c-1.422-3.424-3.997-7.157-6.695-8.959H9.201c-2.698 1.802-5.273 5.536-6.694 8.959C1.08 19.628 2.79 23 6.05 23h11.9c3.259 0 4.97-3.372 3.543-6.803Z"/></svg>