<svg viewBox="0 0 24 24" xmlns="http://www.w3.org/2000/svg"><path fill-rule="evenodd" clip-rule="evenodd" d="M12 24c6.627 0 12-5.373 12-12S18.627 0 12 0 0 5.373 0 12s5.373 12 12 12Zm4.575-8.934c.123.124.123.322 0 .42l-1.088 1.089c-.124.123-.322.123-.42 0L12 13.509l-3.066 3.066c-.124.123-.322.123-.42 0l-1.088-1.088c-.124-.124-.124-.322 0-.42L10.493 12 7.426 8.935c-.124-.124-.124-.322 0-.42l1.088-1.088c.123-.124.321-.124.42 0L12 10.493l3.065-3.066c.124-.124.322-.124.42 0l1.089 1.088c.123.123.123.321 0 .42L13.509 12l3.066 3.065Z"/></svg>