<svg viewBox="0 0 24 24" xmlns="http://www.w3.org/2000/svg"><path d="M7.463 11.112H4.055l-2.008-6.52.04.282c.097.625.172 1.198.225 1.72.061.514.092 1.095.092 1.746v2.772H0V2.179h3.342l2.087 6.546-.04-.27a29.932 29.932 0 0 1-.25-1.643 17.498 17.498 0 0 1-.08-1.77V2.178h2.404v8.933Zm-.554 1.82v1.963l-3.66 4.903h3.779l-.265 2.067H0v-1.938l3.778-4.993H.37v-2.002h6.539ZM24 15.81c0 1.424-.47 2.648-1.41 3.67-.921 1.005-2.209 1.68-3.863 2.028V24H14.92v-2.3c-2.538-.22-4.634-1.114-6.288-2.685l2.707-2.877c1.41 1.169 2.942 1.753 4.596 1.753.771 0 1.344-.146 1.72-.438a1.39 1.39 0 0 0 .592-1.178c0-.365-.084-.667-.253-.904-.17-.256-.47-.484-.903-.685-.413-.201-1.034-.43-1.86-.685-2.163-.658-3.676-1.452-4.54-2.384-.847-.931-1.27-2.091-1.27-3.48 0-1.442.499-2.639 1.495-3.588 1.015-.95 2.35-1.553 4.004-1.809V0h3.807v2.768c1.917.292 3.515 1.06 4.794 2.301l-2.425 2.795c-1.26-.968-2.595-1.452-4.005-1.452-.658 0-1.156.118-1.494.356-.338.219-.508.53-.508.931 0 .31.094.567.282.768.188.2.498.392.93.575.452.183 1.166.42 2.144.712 1.955.621 3.365 1.388 4.23 2.302.883.913 1.325 2.164 1.325 3.753Z"/></svg>