<svg viewBox="0 0 24 24" xmlns="http://www.w3.org/2000/svg"><path d="M.062 12.389C.197 12.783 3.405 22 12 22s11.803-9.217 11.938-9.611a1.253 1.253 0 0 0 0-.778C23.803 11.217 20.595 2 12 2S.197 11.217.062 11.611a1.252 1.252 0 0 0 0 .778ZM12 4.222c6.358 0 9.25 6.111 9.916 7.778-.666 1.617-3.61 7.778-9.916 7.778-6.358 0-9.25-6.111-9.915-7.778.665-1.617 3.61-7.778 9.915-7.778Z"/><path d="M8.885 16.344c.884.786 1.983 1.213 3.115 1.212.39-.001.78-.05 1.16-.148a4.838 4.838 0 0 0 2.384-1.467 5.692 5.692 0 0 0 1.324-2.647 6.192 6.192 0 0 0 .012-2.5 5.874 5.874 0 0 0-.97-2.255 5.11 5.11 0 0 0-1.739-1.546A4.57 4.57 0 0 0 12 6.444a.952.952 0 0 0-.707.326 1.176 1.176 0 0 0-.293.786v2.222c0 .294-.105.577-.293.785a.952.952 0 0 1-.707.326H8a.952.952 0 0 0-.707.325A1.177 1.177 0 0 0 7 12c-.002.835.167 1.66.494 2.413a5.47 5.47 0 0 0 1.39 1.931ZM10 13.111c.796 0 1.559-.351 2.121-.976.563-.625.879-1.473.879-2.357v-.922a3 3 0 0 1 1.24.928c.337.42.572.93.684 1.478.112.55.096 1.12-.044 1.661a3.428 3.428 0 0 1-.761 1.431 2.954 2.954 0 0 1-1.288.845 2.711 2.711 0 0 1-1.495.05 2.908 2.908 0 0 1-1.33-.76 3.375 3.375 0 0 1-.836-1.378H10Z"/></svg>