<svg viewBox="0 0 24 24" xmlns="http://www.w3.org/2000/svg"><path d="M7.682 11.773c1.237 0 2.309-.455 3.184-1.355.876-.899 1.32-1.999 1.32-3.27 0-1.27-.444-2.37-1.32-3.269-.875-.899-1.947-1.354-3.184-1.354-1.238 0-2.309.455-3.184 1.354-.876.9-1.32 2-1.32 3.27s.444 2.37 1.32 3.27c.876.898 1.947 1.354 3.184 1.354Zm7.88 6.105a11.718 11.718 0 0 0-.151-1.213 9.77 9.77 0 0 0-.29-1.22 6.112 6.112 0 0 0-.49-1.137 4.284 4.284 0 0 0-.736-.986 3.236 3.236 0 0 0-1.057-.682 3.57 3.57 0 0 0-1.35-.251c-.192 0-.376.08-.733.319-.22.147-.476.317-.762.505-.245.16-.577.31-.987.446-.4.133-.806.2-1.206.2-.401 0-.807-.067-1.207-.2-.41-.136-.742-.286-.986-.446-.284-.186-.54-.356-.763-.505-.356-.239-.541-.32-.732-.32-.486 0-.94.085-1.35.252a3.233 3.233 0 0 0-1.058.683 4.281 4.281 0 0 0-.736.985 6.12 6.12 0 0 0-.489 1.138 9.791 9.791 0 0 0-.29 1.22c-.075.43-.126.838-.152 1.213A17.44 17.44 0 0 0 0 19.013c0 1.002.31 1.813.922 2.412.604.59 1.404.89 2.376.89h9.004c.972 0 1.771-.3 2.376-.89.612-.598.922-1.41.922-2.413 0-.386-.013-.768-.038-1.134Zm7.416-13.856-1.063.445A3.98 3.98 0 0 0 20.5 3.343l.194-1.136a.2.2 0 0 0-.128-.225 5.308 5.308 0 0 0-2.195-.279.222.222 0 0 0-.199.184l-.194 1.136a4.478 4.478 0 0 0-1.73.725l-.868-.69a.207.207 0 0 0-.263.01 5.988 5.988 0 0 0-1.429 1.796.207.207 0 0 0 .05.258l.868.69a4.474 4.474 0 0 0-.317 1.85l-1.063.445a.222.222 0 0 0-.134.235c.11.75.369 1.447.766 2.076a.198.198 0 0 0 .248.074l1.063-.445c.38.478.863.863 1.414 1.124l-.194 1.136a.2.2 0 0 0 .128.226c.701.245 1.44.339 2.194.278a.22.22 0 0 0 .2-.184l.194-1.135a4.455 4.455 0 0 0 1.73-.725l.87.69c.075.06.184.056.262-.01a5.925 5.925 0 0 0 1.43-1.796.207.207 0 0 0-.05-.258l-.87-.691a4.447 4.447 0 0 0 .317-1.85l1.063-.445a.22.22 0 0 0 .134-.235 5.318 5.318 0 0 0-.765-2.076.201.201 0 0 0-.25-.074Zm-2.982 4.392c-.67.842-1.868 1.01-2.67.372-.801-.638-.908-1.842-.238-2.685s1.867-1.01 2.669-.372.91 1.841.239 2.685Z"/></svg>