<svg viewBox="0 0 24 24" xmlns="http://www.w3.org/2000/svg"><g clip-path="url(#clip0_2767_365)"><path d="M23.573 17.277a147.76 147.76 0 0 0-4.753-2.307c-.64-.3-1.166-.082-1.57.486-.387.545-.77 1.095-1.186 1.62-.658.834-1.05.924-2.03.523-3.327-1.364-5.803-3.693-7.661-6.73-.31-.505-.302-.948.104-1.397.463-.514.966-1.008 1.328-1.59.209-.336.344-.89.217-1.234C7.409 5 6.709 3.381 6.003 1.766c-.113-.26-.384-.576-.632-.627-1.212-.246-2.41-.251-3.378.703C.666 3.147.031 4.74 0 6.597c.034.356.048.712.104 1.065.325 2.064 1.378 3.784 2.547 5.464 3.42 4.914 7.811 8.454 13.713 9.957 1.95.497 3.736.288 5.458-.754 1.64-.994 2.197-2.508 2.177-4.306 0-.257-.208-.633-.426-.746Z"/></g><defs><clipPath id="clip0_2767_365"><path d="M0 0h24v24H0z"/></clipPath></defs></svg>