<svg viewBox="0 0 24 24" xmlns="http://www.w3.org/2000/svg"><path fill-rule="evenodd" clip-rule="evenodd" d="M12 0C7.055 0 2.997 3.835 2.625 8.625h18.75C21.003 3.835 16.945 0 12 0ZM7.125 5.438c0-.518.42-.938.938-.938h7.874a.937.937 0 1 1 0 1.875H8.064a.937.937 0 0 1-.938-.938Zm-.75 17.812v-1.42h11.25v1.42c0 .414.336.75.75.75h2.25a.75.75 0 0 0 .75-.75V9.75H2.625v13.5c0 .414.336.75.75.75h2.25a.75.75 0 0 0 .75-.75Zm5.402-6.509a.68.68 0 0 0 .219.04h.008a.68.68 0 0 0 .219-.04c1.102-.376 2.768-1.767 3.313-2.592.143-.215.214-.442.214-.679a.7.7 0 0 0-.207-.509.665.665 0 0 0-.492-.211H8.95c-.224 0-.397.078-.518.234a.927.927 0 0 0-.181.585c0 .189.08.394.24.614.645.888 2.17 2.176 3.287 2.558Zm.228.617h-.01c-1.152 0-3.146-1.878-3.745-2.565v3.237c0 .198.068.367.205.508a.663.663 0 0 0 .494.212h6.102c.192 0 .357-.07.494-.212a.704.704 0 0 0 .205-.508v-3.237c-.621.714-2.588 2.565-3.745 2.565Z"/></svg>