<svg viewBox="0 0 24 24" xmlns="http://www.w3.org/2000/svg"><g clip-path="url(#clip0_1097_206)"><path fill-rule="evenodd" clip-rule="evenodd" d="M7.165 2.722 8.913.974a1.756 1.756 0 0 1 2.48 0l11.633 11.632a1.756 1.756 0 0 1 0 2.481l-1.748 1.748a1.74 1.74 0 0 1-1.967.357 1.587 1.587 0 0 0-1.77.321 1.587 1.587 0 0 0-.322 1.77 1.74 1.74 0 0 1-.356 1.967l-1.776 1.776a1.756 1.756 0 0 1-2.48 0L.974 11.394a1.756 1.756 0 0 1 0-2.481L2.75 7.137a1.74 1.74 0 0 1 1.967-.356 1.587 1.587 0 0 0 1.77-.322 1.587 1.587 0 0 0 .321-1.77 1.74 1.74 0 0 1 .357-1.967Zm6.97 5.807a.57.57 0 0 1 .312.518L14.422 11a.253.253 0 0 0 .107.21l1.595 1.127a.574.574 0 0 1-.16 1.014l-1.866.58a.259.259 0 0 0-.167.167l-.58 1.865a.579.579 0 0 1-.597.4.56.56 0 0 1-.416-.24L11.21 14.53a.253.253 0 0 0-.21-.107l-1.953.025a.569.569 0 0 1-.518-.312.569.569 0 0 1 .052-.603l1.168-1.566a.253.253 0 0 0 .037-.232l-.628-1.85a.569.569 0 0 1 .138-.588.57.57 0 0 1 .589-.138l1.85.628a.252.252 0 0 0 .231-.037l1.566-1.168a.57.57 0 0 1 .602-.052Z"/></g><defs><clipPath id="clip0_1097_206"><path d="M0 0h24v24H0z"/></clipPath></defs></svg>