<svg viewBox="0 0 24 24" xmlns="http://www.w3.org/2000/svg"><path fill-rule="evenodd" clip-rule="evenodd" d="M1.586 2h2.896c.872 0 1.586.688 1.586 1.53v2.94c0 .843-.714 1.53-1.586 1.53H1.586C.714 8 0 7.313 0 6.471V3.53C0 2.688.714 2 1.586 2Zm7.628 14h13.2c.872 0 1.586.688 1.586 1.529v2.942c0 .841-.714 1.529-1.586 1.529h-13.2c-.872 0-1.586-.688-1.586-1.529V17.53c0-.841.714-1.529 1.586-1.529Zm-7.628 0h2.896c.872 0 1.586.688 1.586 1.529v2.942c0 .841-.714 1.529-1.586 1.529H1.586C.714 22 0 21.312 0 20.471V17.53C0 16.688.714 16 1.586 16Zm7.628-7h13.2C23.286 9 24 9.688 24 10.529v2.942c0 .841-.714 1.529-1.586 1.529h-13.2c-.872 0-1.586-.688-1.586-1.529V10.53c0-.842.714-1.53 1.586-1.53ZM1.586 9h2.896c.872 0 1.586.688 1.586 1.529v2.942c0 .841-.714 1.529-1.586 1.529H1.586C.714 15 0 14.312 0 13.471V10.53C0 9.688.714 9 1.586 9Zm7.628-7h13.2C23.286 2 24 2.688 24 3.53v2.94C24 7.313 23.286 8 22.414 8h-13.2c-.872 0-1.586-.687-1.586-1.529V3.53c0-.842.714-1.53 1.586-1.53Z"/></svg>