<svg viewBox="0 0 24 24" xmlns="http://www.w3.org/2000/svg"><path fill-rule="evenodd" clip-rule="evenodd" d="M5.823 6.983c-2.079.685-4.2 1.384-5.63 3.209-.302.376-.191.674-.058.915l1.856 3.362 1.857 3.365c.134.242.367.21.541-.036 1.255-1.6 3.167-2.192 5.042-2.772.408-.127.813-.252 1.21-.387a1040.47 1040.47 0 0 0-1.35 2.52.28.28 0 0 0 .039.326c.946.978 1.396-.614 1.852-1.423.307-.546.615-1.093.818-1.45.203.357.51.904.818 1.45.456.808.906 2.4 1.853 1.423a.28.28 0 0 0 .039-.326c-.214-.4-.765-1.432-1.351-2.52.397.135.802.26 1.21.386 1.875.581 3.787 1.173 5.042 2.773.174.247.407.278.54.036l1.854-3.357 1.86-3.37c.133-.241.244-.54-.057-.915-1.43-1.825-3.552-2.524-5.631-3.209a54.003 54.003 0 0 1-1.253-.424 28.745 28.745 0 0 0-1.53-.492.296.296 0 0 0-.347.15L13.95 8.343s-1.224 2.579-1.48 2.958c-.054.08-.229.39-.471.83a19.41 19.41 0 0 0-.47-.83c-.257-.38-1.48-2.958-1.48-2.958L8.952 6.217a.296.296 0 0 0-.346-.15c-.323.095-.932.279-1.53.492-.412.147-.832.285-1.254.424Zm6.988 6.639-.066-.122.522-.946.563-1.022c.793.345 1.606.607 2.427.86l-1.127 2.043c-.784-.239-1.56-.49-2.319-.813Zm-1.556-.122-.522-.946-.563-1.022c-.793.345-1.606.607-2.427.86l1.127 2.043c.784-.239 1.56-.49 2.319-.813l.066-.122ZM5.349 8.095c.83-.254 1.646-.517 2.445-.866a810.346 810.346 0 0 0 1.112 2.014c-.801.35-1.618.613-2.446.865a904.665 904.665 0 0 0-1.11-2.013Zm-1.324 2.894.63 1.144.632 1.145c.797-.36 1.61-.628 2.437-.881a1217.62 1217.62 0 0 1-1.264-2.289c-.826.255-1.639.521-2.433.88L3.47 9.98l-.555-1.007c-.745.383-1.372.821-1.967 1.439l1.111 2.014c.595-.617 1.221-1.055 1.965-1.438Zm2.377 4.338a7.171 7.171 0 0 0-1.953 1.433l-.563-1.022-.564-1.022a7.171 7.171 0 0 1 1.953-1.433l.564 1.022.563 1.022Zm12.25-7.232c-.83-.254-1.647-.517-2.446-.866l-.516.934-.596 1.08c.801.35 1.618.613 2.446.865l-.632 1.145-.632 1.144c.828.253 1.64.521 2.437.88a827.357 827.357 0 0 1 1.262-2.288c.744.383 1.37.82 1.965 1.438.372-.672.742-1.343 1.111-2.014-.595-.618-1.222-1.056-1.967-1.439a800.558 800.558 0 0 1-1.11 2.014c-.795-.359-1.608-.625-2.434-.88a1103.02 1103.02 0 0 1 1.111-2.013Zm-1.054 7.232a7.17 7.17 0 0 1 1.953 1.433l.562-1.02.565-1.024a7.174 7.174 0 0 0-1.953-1.433l-.562 1.02-.565 1.024Z"/></svg>