<svg viewBox="0 0 24 24" xmlns="http://www.w3.org/2000/svg"><path d="M20.178 9.418a1.5 1.5 0 0 0-1.89-.956 1.5 1.5 0 0 0-.956 1.89 5.38 5.38 0 0 1 .276 1.743A5.616 5.616 0 0 1 12 17.702a5.556 5.556 0 0 1-3.972-1.635 5.556 5.556 0 0 1-1.636-3.972c0-2.89 2.21-5.268 5.013-5.566v2.167c0 .637.722.998 1.232.616l4.843-3.696a.757.757 0 0 0 0-1.21L12.637.687a.769.769 0 0 0-1.232.616v2.209c-4.46.319-8.008 4.036-8.008 8.603 0 2.294.892 4.46 2.528 6.096A8.547 8.547 0 0 0 12 20.72c4.758 0 8.603-3.866 8.603-8.603 0-.935-.128-1.827-.425-2.698Z"/></svg>