<svg viewBox="0 0 24 24" xmlns="http://www.w3.org/2000/svg"><path d="m21.762 5.033-2.34.958A8.731 8.731 0 0 0 16.31 3.57l.428-2.447a.428.428 0 0 0-.283-.485 11.924 11.924 0 0 0-4.83-.6.486.486 0 0 0-.439.397l-.428 2.445A9.972 9.972 0 0 0 6.95 4.441L5.04 2.956a.463.463 0 0 0-.578.02 12.946 12.946 0 0 0-3.144 3.87.44.44 0 0 0 .11.555l1.91 1.487a9.452 9.452 0 0 0-.699 3.983L.3 13.83a.477.477 0 0 0-.295.506 11.286 11.286 0 0 0 1.685 4.47.442.442 0 0 0 .546.16l2.34-.958a8.757 8.757 0 0 0 3.112 2.421l-.427 2.447a.428.428 0 0 0 .282.485c1.544.529 3.169.73 4.83.6a.48.48 0 0 0 .439-.396l.428-2.446a9.922 9.922 0 0 0 3.81-1.561l1.911 1.488c.167.13.408.12.578-.021a12.894 12.894 0 0 0 3.146-3.871.44.44 0 0 0-.11-.556l-1.912-1.488a9.416 9.416 0 0 0 .697-3.982l2.34-.959a.473.473 0 0 0 .294-.507 11.3 11.3 0 0 0-1.684-4.47.448.448 0 0 0-.548-.16Zm-6.564 9.458c-1.475 1.814-4.11 2.175-5.875.802-1.765-1.374-2-3.967-.525-5.782 1.476-1.816 4.11-2.174 5.875-.801 1.764 1.373 2 3.965.525 5.78Z"/></svg>