<svg viewBox="0 0 24 24" xmlns="http://www.w3.org/2000/svg"><path fill-rule="evenodd" clip-rule="evenodd" d="M8.352 6.026 7.168 4.842 12 0l4.831 4.842-1.183 1.184L12.9 3.39v12.228h-1.803V3.389L8.352 6.026Z"/><path d="M4.789 10.93c0-.747.605-1.353 1.352-1.353h2.704V7.775H6.141a3.155 3.155 0 0 0-3.155 3.155v9.915A3.155 3.155 0 0 0 6.14 24h11.718a3.155 3.155 0 0 0 3.155-3.155V10.93a3.155 3.155 0 0 0-3.155-3.155h-2.704v1.802h2.704c.747 0 1.352.606 1.352 1.353v9.915c0 .747-.605 1.352-1.352 1.352H6.141a1.352 1.352 0 0 1-1.352-1.352V10.93Z"/></svg>