<svg viewBox="0 0 24 24" xmlns="http://www.w3.org/2000/svg"><g clip-path="url(#clip0_5355_59024)"><path d="m11.294 7.835.706-.37.706.37v1.341h9.882c.78 0 1.412.633 1.412 1.412v12c0 .78-.632 1.412-1.412 1.412H1.412C.632 24 0 23.368 0 22.588v-12c0-.78.632-1.412 1.412-1.412h9.882v-1.34Zm-2.47 5.224v7.059c0 .39.316.706.705.706h4.942c.39 0 .706-.317.706-.706v-7.06a.706.706 0 0 0-.706-.705H9.529a.706.706 0 0 0-.705.706Zm-5.648-.706a1.41 1.41 0 0 0-1.411 1.412v5.647c0 .78.632 1.412 1.411 1.412H7.06c.39 0 .706-.317.706-.706v-7.06a.706.706 0 0 0-.706-.705H3.176Zm17.648 0H16.94a.706.706 0 0 0-.706.706v7.059c0 .39.316.706.706.706h3.883c.78 0 1.411-.633 1.411-1.412v-5.647c0-.78-.632-1.412-1.412-1.412Zm-10.589 1.412h3.53v5.647h-3.53v-5.647Zm-3.882 0v5.647H3.529a.353.353 0 0 1-.353-.353v-4.941c0-.195.158-.353.353-.353h2.824Zm11.294 0h2.824c.195 0 .352.158.352.353v4.94a.353.353 0 0 1-.352.354h-2.824v-5.647Zm-7.186-6.688a.706.706 0 0 1-1.024-.744l.294-1.713-1.245-1.214a.706.706 0 0 1 .391-1.204l1.72-.25.77-1.559a.706.706 0 0 1 1.266 0l.77 1.56 1.72.25c.579.083.81.795.39 1.203L14.27 4.62l.294 1.713a.706.706 0 0 1-1.024.744L12 6.268l-1.539.809Z"/></g><defs><clipPath id="clip0_5355_59024"><path d="M0 0h24v24H0z"/></clipPath></defs></svg>