<svg viewBox="0 0 24 24" xmlns="http://www.w3.org/2000/svg"><g clip-path="url(#clip0_3860_68280)"><path d="M2.743 2.626V2.19c0-.75-.624-1.375-1.372-1.375A1.384 1.384 0 0 0 0 2.189v20.436C0 23.375.623 24 1.371 24s1.372-.625 1.372-1.375v-5.687c7.106 3.75 14.213-6.562 21.257-.875V1.751c-7.044-5.687-14.15 4.625-21.257.875Zm0 13.125v-3.813c1.62.875 3.304 1 4.925.688v-4.25c-1.621.25-3.304.125-4.925-.75v-3.75c1.62.875 3.304 1 4.925.688v3.812c1.683-.25 3.366-.937 5.049-1.625v4.25c-1.683.687-3.366 1.312-5.05 1.625v3.812c-1.62.25-3.303.188-4.924-.687ZM12.717 11c1.683-.688 3.366-1.312 5.05-1.625V5.189c-1.684.25-3.367.937-5.05 1.625V2.939c1.683-.688 3.366-1.313 5.05-1.625v3.812c1.682-.25 3.366-.125 5.049.813v4.25c-1.683-.938-3.367-1.063-5.05-.813v3.812c-1.683.25-3.366.938-5.05 1.625v-3.812Z"/></g><defs><clipPath id="clip0_3860_68280"><path d="M0 0h24v24H0z"/></clipPath></defs></svg>