<svg viewBox="0 0 24 24" xmlns="http://www.w3.org/2000/svg"><path d="M19.779 4.222a10.966 10.966 0 0 0-8.042-3.219l4.483 4.48A7.592 7.592 0 0 1 16.2 16.2a7.588 7.588 0 0 1-10.715.017v.002l-4.482-4.482a10.974 10.974 0 0 0 3.219 8.041c4.295 4.296 11.262 4.296 15.556 0 4.296-4.296 4.296-11.26 0-15.556Z"/><path d="M6.673 15.021a5.865 5.865 0 0 0 4.17 1.716 5.864 5.864 0 0 0 4.164-1.73 5.863 5.863 0 0 0 1.73-4.164 5.858 5.858 0 0 0-1.715-4.17L9.61 1.262a10.928 10.928 0 0 0-5.388 2.96 10.941 10.941 0 0 0-2.96 5.388l5.352 5.354.06.058Z"/></svg>