<svg viewBox="0 0 24 24" xmlns="http://www.w3.org/2000/svg"><path d="M12 1C5.937 1 1 5.937 1 12s4.937 11 11 11 11-4.937 11-11S18.063 1 12 1ZM2.073 12a9.4 9.4 0 0 1 .242-2.146l2.71-1.556 3.219 1.85v3.703l-3.22 1.851-2.71-1.556A9.399 9.399 0 0 1 2.075 12Zm6.44-2.334-3.22-1.851v-3.14A9.777 9.777 0 0 1 9.022 2.53l2.71 1.583v3.73l-3.22 1.824Zm6.975 4.668 3.22 1.851v3.14a9.776 9.776 0 0 1-3.73 2.146l-2.71-1.583v-3.73l3.22-1.824Zm3.22-9.658v3.139l-3.22 1.85-3.22-1.85v-3.73l2.71-1.556c1.395.456 2.683 1.18 3.73 2.147ZM5.292 19.324v-3.139l3.22-1.85 3.219 1.85v3.73l-2.71 1.556c-1.395-.456-2.683-1.18-3.73-2.147Zm13.683-3.622-3.22-1.85v-3.703l3.22-1.851 2.71 1.556a9.66 9.66 0 0 1 0 4.292l-2.71 1.556Z"/></svg>