<svg viewBox="0 0 24 24" xmlns="http://www.w3.org/2000/svg"><path d="M9.678 1.249c.029.328.172 1.253.892 2.276a12.064 12.064 0 0 1 8.38-.06A10.982 10.982 0 0 0 12 1c-.778 0-1.557.085-2.322.249Zm-1.059.282c.068.508.28 1.43.933 2.433-1.026.5-1.995 1.15-2.87 1.952L4.61 3.844a10.924 10.924 0 0 1 4.009-2.313ZM3.842 4.612l2.072 2.071a12.099 12.099 0 0 0-1.952 2.87 5.986 5.986 0 0 0-2.432-.932 10.92 10.92 0 0 1 2.313-4.009Zm-.38 14.338C1.3 16.298.564 12.866 1.246 9.68c.33.028 1.254.172 2.277.891a12.06 12.06 0 0 0-.06 8.379Zm2.322 2.133a10.642 10.642 0 0 0 .381.25l.074.045a10.21 10.21 0 0 0 .706.4c.13.067.26.132.392.194l.033.016c.794.367 1.622.633 2.466.8-1.359-1.373-2.116-3.245-3.401-7.677-.516-1.778-1.261-2.973-2.032-3.778a10.967 10.967 0 0 0 1.365 9.739l.008.006c.002 0 .003.002.005.003l.003.002ZM22.789 9.837c-1.375-1.358-3.247-2.115-7.68-3.4-1.777-.516-2.972-1.261-3.777-2.032a10.97 10.97 0 0 1 9.74 1.365l.005.008.002.003c.082.119.16.24.237.36l.029.046.028.046a11.354 11.354 0 0 1 .597 1.103l.005.01.014.03c.366.791.632 1.618.8 2.461ZM11.79 22.998a11 11 0 0 0 6.657-2.076l.034-.024.078-.058c.102-.075.203-.154.303-.234l.03-.023.096-.078a9.93 9.93 0 0 0 .292-.25l.05-.044.06-.053L6.683 7.452a11.003 11.003 0 0 0-1.845 2.783c1.006.918 1.994 2.345 2.64 4.573 1.67 5.757 2.38 6.841 4.311 8.19Zm8.78-4.09-.066.081a11.678 11.678 0 0 1-.291.339l-.055.063L7.451 6.685a11.027 11.027 0 0 1 2.782-1.845c.919 1.006 2.346 1.993 4.574 2.64 5.758 1.67 6.842 2.379 8.191 4.31a11 11 0 0 1-1.785 6.236l-.034.051-.017.026a10.906 10.906 0 0 1-.253.363l-.07.095a10.62 10.62 0 0 1-.27.347Z"/></svg>