<svg viewBox="0 0 24 24" xmlns="http://www.w3.org/2000/svg"><path d="M18.127 1c-2.136 1.039-3.191 2.458-3.243 4.228a8.737 8.737 0 0 0-1.795.313c.495 1.444 1.062 2.687 1.912 3.887.727-1.749 2.054-3.014 4.176-3.634a3.695 3.695 0 0 0-.768-.707c.29-1.286.178-2.652-.282-4.087Zm-5.806 4.78a16.91 16.91 0 0 0-2.708 1.239 21.98 21.98 0 0 0-2.136 1.374l.033 10.47a4.8 4.8 0 0 0 4.814 4.815c1.331 0 2.53-.53 3.4-1.392-.85-3.184-2.707-5.549-1.968-9.311.859 1.248 1.946 2.068 3.387 2.226V12.88c-2.631-2.333-3.894-4.428-4.822-7.1Zm7.337.712c-2.277.577-3.437 1.795-4.068 3.678.991 1.212 2.315 2.43 4.195 3.824l2.318-2.316-.732-1.236c-.828-1.398-1.076-2.806-1.713-3.95Zm-1.31 2.37a.403.403 0 1 1 0 .805.403.403 0 0 1 0-.805ZM6.67 9.014c-3.146 2.57-4.984 5.892-5.89 10.728l-.555 2.966a1 1 0 0 0 .997 1.184l8.374-.118a5.624 5.624 0 0 1-2.894-4.906L6.67 9.014Zm15.857 3.38-3.125 3.123 1.308 1.31c.663.663 1.73.663 2.393 0l.4-.398a1.687 1.687 0 0 0 0-2.391l-.976-1.645Zm-4.58 1.177v1.662h.599l.664-.664a33.79 33.79 0 0 1-1.264-.998Z"/></svg>