<svg viewBox="0 0 24 24" xmlns="http://www.w3.org/2000/svg"><path d="m19.594 3.875.388-.772c.265-.54-.163-1.157-.796-1.1l-5.465.406c-.592.038-.918.675-.592 1.157l2.978 4.108c.408.56 1.305.502 1.61-.116l.388-.752c.102-.193.367-.25.53-.115 1.265 1.002 2.06 2.488 2.06 4.166 0 2.275-1.488 4.223-3.569 5.033-.428.174-.734.54-.754.965-.04.79.795 1.37 1.57 1.06C20.9 16.798 23 14.04 23 10.838c0-2.469-1.244-4.648-3.161-6.056-.306-.212-.408-.579-.245-.906ZM2 0a2 2 0 0 0-2 2v13a2 2 0 0 0 2 2h3V9a4 4 0 0 1 4-4h2.698l-.207-.286-.018-.027c-1.01-1.492-.33-3.287 1.05-3.984A1.996 1.996 0 0 0 11 0H2Zm11 3.16v-.013.013Z"/><path d="m13.148 7 1.34 1.848.003.005c.927 1.27 2.697 1.552 3.957.772.162.386.247.8.247 1.232 0 1.365-.899 2.626-2.294 3.17l-.013.005-.013.005c-.979.396-1.933 1.348-2 2.718-.12 2.353 2.273 3.813 4.288 3.026.462-.175.91-.384 1.337-.623V22a2 2 0 0 1-2 2H9a2 2 0 0 1-2-2V9a2 2 0 0 1 2-2h4.148Z"/></svg>