<svg viewBox="0 0 24 24" xmlns="http://www.w3.org/2000/svg"><path d="M3.761 13.275c-1.878 0-3.405 1.506-3.405 3.36 0 1.853 1.527 3.415 3.405 3.415 1.879 0 3.406-1.562 3.406-3.415 0-1.854-1.527-3.36-3.406-3.36Zm19.574-1.591c1.837-4.27-.273-9.201-4.601-11.014-4.329-1.813-9.328.18-11.165 4.45a8.221 8.221 0 0 0-.65 3.378l14.314 5.994c.832-.774 1.627-1.703 2.102-2.808ZM7.167 10.427a8.379 8.379 0 0 0 3.412 4.895l-2.728 6.341c-.368.854.036 1.84.902 2.203a1.712 1.712 0 0 0 2.233-.89l2.728-6.341c2.072.416 4.174.025 5.94-.98L7.167 10.427Z"/></svg>