<svg viewBox="0 0 24 24" xmlns="http://www.w3.org/2000/svg"><path d="M19.786 4.173H15.97C15.742 2.389 14.087 1 12.076 1h-.178c-2.01 0-3.664 1.39-3.867 3.173H4.214C2.992 4.173 2 5.076 2 6.187c0 .278.229.487.534.487h18.932c.305 0 .534-.209.534-.487 0-1.111-.992-2.014-2.214-2.014Zm-7.862-1.297h.178c.865 0 1.577.556 1.781 1.297h-3.74c.178-.741.915-1.297 1.78-1.297Zm-6.972 18.41C5.028 22.26 5.919 23 6.988 23h10.025c1.069 0 1.96-.741 2.036-1.714L20.27 7.924H3.73l1.222 13.362Zm9.135-9.54c.025-.44.432-.765.916-.742.483.023.84.394.814.834l-.458 7.34c-.025.418-.407.742-.865.742h-.051c-.483-.023-.84-.394-.814-.834l.458-7.34Zm-5.064-.742c.484-.023.89.301.916.741l.458 7.341c.026.44-.33.81-.814.834h-.051c-.458 0-.84-.324-.865-.741l-.458-7.341c-.026-.44.33-.81.814-.834Z"/></svg>