<svg viewBox="0 0 24 24" xmlns="http://www.w3.org/2000/svg"><path d="M11.986 18.884H5.579a2.024 2.024 0 0 1-.61-.078 1.46 1.46 0 0 1-1.022-1.149c-.159-.68-.303-1.36-.455-2.043L2.044 9.092a1.386 1.386 0 0 1-.027-.566.993.993 0 0 1 .412-.642c.228-.159.493-.257.77-.286.166-.022.334-.033.502-.032.748.003 1.496 0 2.243 0h.131a.053.053 0 0 0 .057-.035.054.054 0 0 0 .003-.024l.001-.114V5.936a5.83 5.83 0 0 1 1.542-4.022 5.709 5.709 0 0 1 3.286-1.82 5.822 5.822 0 0 1 3.987.708 5.882 5.882 0 0 1 2.896 5.348c-.016.425-.004.85-.004 1.275 0 .14 0 .141.145.141h2.357a2.53 2.53 0 0 1 .833.122c.103.034.202.08.295.136a1 1 0 0 1 .504 1.096c-.106.545-.233 1.088-.354 1.629l-1.185 5.344c-.13.584-.256 1.17-.39 1.754a1.51 1.51 0 0 1-.527.898 1.493 1.493 0 0 1-.98.339c-.288.007-.574.001-.863.001h-5.69l-.002-.001Zm3.633-11.318c.147 0 .14.011.14-.14V5.66a3.792 3.792 0 0 0-1.48-2.954 3.748 3.748 0 0 0-5.011.403 3.801 3.801 0 0 0-1.035 2.5c-.011.594-.003 1.188-.007 1.783 0 .192-.016.174.177.174h7.216Zm-3.621 2.418h-2.18a.707.707 0 0 0-.226.02c-.107.035-.147.075-.15.184-.002.357-.002.71 0 1.064a.14.14 0 0 0 .077.145.139.139 0 0 0 .056.014.882.882 0 0 0 .16.01h.927c.277 0 .277 0 .277.284v3.91c0 .246.05.296.29.316l.033.003c.436 0 .868.01 1.301-.003.376-.01.365-.136.365-.385-.002-1.289-.002-2.575-.002-3.863 0-.255.005-.262.25-.262h1.04a.897.897 0 0 0 .163-.01c.095-.018.136-.059.136-.156.003-.355.003-.709 0-1.064-.003-.11-.043-.15-.147-.188a.699.699 0 0 0-.226-.02h-2.145v.001Zm-3.932 9.352a2.317 2.317 0 0 1 2.133 1.45 2.344 2.344 0 0 1-.515 2.537 2.31 2.31 0 0 1-2.526.492 2.32 2.32 0 0 1-1.035-.864 2.341 2.341 0 0 1 .303-2.94 2.31 2.31 0 0 1 1.64-.675Zm7.867 0c.458.002.906.14 1.286.398s.676.624.85 1.05a2.345 2.345 0 0 1-.514 2.54 2.312 2.312 0 0 1-2.529.494 2.32 2.32 0 0 1-1.035-.865 2.342 2.342 0 0 1-.384-1.299 2.326 2.326 0 0 1 .682-1.648 2.298 2.298 0 0 1 1.644-.67Z"/></svg>