<svg viewBox="0 0 24 24" xmlns="http://www.w3.org/2000/svg"><path d="M19.237 15.435c0 1.38-.443 2.567-1.328 3.558-.868.974-2.08 1.63-3.638 1.966V24h-3.586v-2.855c-2.39-.213-4.364-1.08-5.922-2.603l2.55-2.789c1.327 1.134 2.77 1.7 4.328 1.7.726 0 1.266-.142 1.62-.425.372-.283.558-.664.558-1.142 0-.354-.08-.646-.239-.876-.16-.248-.443-.47-.85-.664-.39-.195-.973-.416-1.753-.664-2.036-.637-3.46-1.407-4.275-2.31-.797-.903-1.195-2.028-1.195-3.373 0-1.399.469-2.558 1.407-3.479.956-.92 2.213-1.505 3.771-1.753V0h3.585v2.794c1.806.283 3.311 1.027 4.515 2.23l-2.284 2.71c-1.186-.939-2.443-1.408-3.77-1.408-.62 0-1.09.115-1.408.345a1.023 1.023 0 0 0-.478.903c0 .301.088.549.265.744.177.194.47.38.877.557.425.177 1.097.408 2.018.69 1.841.603 3.17 1.346 3.983 2.232.833.885 1.249 2.098 1.249 3.638Z"/></svg>