<svg viewBox="0 0 24 24" xmlns="http://www.w3.org/2000/svg"><path d="M11.849 11.56c1.586 0 2.96-.569 4.082-1.693 1.123-1.123 1.692-2.498 1.692-4.087 0-1.588-.57-2.963-1.692-4.087C14.81.57 13.435 0 11.85 0c-1.587 0-2.96.57-4.083 1.693-1.122 1.124-1.691 2.5-1.691 4.087 0 1.589.569 2.964 1.692 4.087 1.122 1.124 2.496 1.694 4.082 1.694Zm10.102 6.895a14.27 14.27 0 0 0-.194-1.517 11.954 11.954 0 0 0-.372-1.524 7.537 7.537 0 0 0-.626-1.422 5.365 5.365 0 0 0-.944-1.232 4.161 4.161 0 0 0-1.357-.853 4.682 4.682 0 0 0-1.73-.314c-.245 0-.482.1-.94.399-.28.183-.61.395-.977.63-.314.2-.74.389-1.265.558a5.017 5.017 0 0 1-1.546.25 5.022 5.022 0 0 1-1.548-.25c-.525-.17-.95-.357-1.264-.557-.364-.233-.693-.445-.978-.632-.457-.298-.694-.398-.938-.398-.624 0-1.206.105-1.731.314a4.157 4.157 0 0 0-1.357.853 5.365 5.365 0 0 0-.943 1.232c-.26.458-.471.937-.626 1.422-.15.469-.276.981-.373 1.524a14.246 14.246 0 0 0-.194 1.517c-.032.46-.048.936-.048 1.418 0 1.252.398 2.267 1.182 3.014.775.739 1.8 1.113 3.047 1.113H17.77c1.247 0 2.272-.374 3.047-1.113.784-.747 1.182-1.761 1.182-3.015 0-.483-.017-.96-.049-1.417Z"/></svg>