<svg viewBox="0 0 24 24" xmlns="http://www.w3.org/2000/svg"><path fill-rule="evenodd" clip-rule="evenodd" d="M6 6a6 6 0 1 1 12 0A6 6 0 0 1 6 6Zm6 1.333c.736 0 1.333-.597 1.333-1.333V2.667a1.334 1.334 0 0 0-2.666 0V6c0 .736.597 1.333 1.333 1.333ZM10.667 9.5a1.334 1.334 0 1 0 2.667 0 1.334 1.334 0 0 0-2.667 0Z"/><path d="M20.956 18.637a14.84 14.84 0 0 0-.174-1.467c-.088-.525-.2-1.021-.336-1.475a7.573 7.573 0 0 0-.563-1.375 5.164 5.164 0 0 0-.85-1.191 3.723 3.723 0 0 0-1.22-.825A3.956 3.956 0 0 0 16.255 12c-.22 0-.434.097-.845.386-.253.177-.55.383-.88.61-.282.194-.665.375-1.138.54-.462.16-.93.242-1.393.242-.462 0-.93-.082-1.392-.243-.472-.164-.855-.345-1.138-.539-.327-.225-.623-.43-.88-.61-.411-.289-.624-.386-.844-.386a3.94 3.94 0 0 0-1.558.304c-.475.202-.886.48-1.221.825-.32.33-.607.73-.85 1.191a7.588 7.588 0 0 0-.563 1.375c-.135.454-.248.95-.335 1.475-.087.52-.146 1.014-.175 1.467-.029.444-.043.905-.043 1.37 0 1.213.358 2.194 1.064 2.917.697.714 1.62 1.076 2.742 1.076h10.388c1.122 0 2.044-.362 2.742-1.076.706-.723 1.064-1.704 1.064-2.916 0-.468-.015-.93-.044-1.371Z"/></svg>