<svg viewBox="0 0 24 24" xmlns="http://www.w3.org/2000/svg"><path d="M12.58 12.413c-.368 5.135-3.146 8.159-5.064 9.644.906.405 1.876.687 2.893.836l.416-.339c2.522-2.044 5.573-5.681 6.278-11.411-1.404.101-2.923.484-4.522 1.27Zm9.992-3.455-.556-.343c-1.99-1.226-7.2-3.693-13.54-1.053.801 1.268 1.937 2.505 3.538 3.586 4.595-2.243 8.649-1.343 10.915-.436-.072-.6-.193-1.187-.357-1.754Z"/><path d="M12.005 1c-1.932 0-3.747.502-5.325 1.378l.005.05a12.381 12.381 0 0 0 1.12 3.925c6.103-2.604 11.263-.863 13.931.524C19.893 3.383 16.23 1 12.005 1ZM5.413 3.208a11.039 11.039 0 0 0-2.334 2.38l.059.383c.5 3.227 2.07 7.758 6.615 11.39.75-1.353 1.321-3.03 1.463-5.094C7.24 9.572 5.84 5.987 5.413 3.209Z"/><path d="M2.012 7.417A10.965 10.965 0 0 0 1 12.01c0 3.94 2.075 7.386 5.183 9.332l.132-.095a12.091 12.091 0 0 0 2.7-2.718c-4.42-3.48-6.265-7.747-7.003-11.112Zm20.802 4.741a12.22 12.22 0 0 0-4.322-1.036c-.653 5.762-3.5 9.565-6.09 11.878A10.994 10.994 0 0 0 23 12.239l-.186-.082Z"/></svg>