<svg xmlns="http://www.w3.org/2000/svg" viewBox="0 0 14 14"><path fill-rule="evenodd" clip-rule="evenodd" d="M12 0a1 1 0 0 1 1 1v7a1 1 0 0 1-1 1h-.596a1 1 0 0 1-1-1V2.294a.044.044 0 0 0-.066-.038l-.731.411a.906.906 0 0 1-.896-1.575l1.435-.826A2 2 0 0 1 11.144 0H12ZM2.09 2.25a1 1 0 0 1 .894.553l.77 1.539.82-1.558a1 1 0 0 1 .885-.534h.235a1 1 0 0 1 .868 1.495L5.78 5.118a1 1 0 0 0 .01 1.008l.814 1.361A1 1 0 0 1 5.745 9h-.194a1 1 0 0 1-.87-.507l-.927-1.638-.892 1.626A1 1 0 0 1 1.985 9h-.214a1 1 0 0 1-.856-1.516l.82-1.36a1 1 0 0 0 .014-1.007L.973 3.742a1 1 0 0 1 .87-1.492h.247ZM8 14H1a1 1 0 0 1-1-1v-1a1 1 0 0 1 1-1h12a1 1 0 0 1 1 1v1a1 1 0 0 1-1 1H8Zm.866-2.5H13a.5.5 0 0 1 .5.5v1a.5.5 0 0 1-.5.5H8.866A.996.996 0 0 0 9 13v-1a.996.996 0 0 0-.134-.5Z"/></svg>