<svg viewBox="0 0 36 56" fill="none" xmlns="http://www.w3.org/2000/svg" preserveAspectRatio="none">
<path d="M35.2812 25.3192L35.968 23.7281C35.6144 22.1811 35.237 19.644 35.2665 18.0381C35.296 13.7951 35.175 10.7873 36 6.5C35.669 3.54307 35 2 31.5004 0.666927C29.7177 -0.334906 26.7122 0.151278 24.8854 0.107079C21.7031 0.26914 18.0607 0.063037 14.9078 0.563954C13.8471 0.667083 12.801 0.829145 11.7403 0.372427C11.2099 0.151434 10.6795 0.0777698 10.1491 0.107236C9.61872 0.107236 9.08835 0.107236 8.55796 0.107236L5.3904 0.298762C3.93184 0.372427 1.45855 0.401892 0 0.401892V1.33006C2.51932 1.34479 6.05338 1.41846 8.55796 1.62472C9.63346 1.62472 10.6942 1.80151 11.7255 1.37426C13.8176 0.593419 15.9391 1.56579 18.0607 1.49212C20.1675 1.46266 22.7491 1.44777 24.8559 1.49197C26.4323 1.58036 29.3936 1.3299 30.7196 2.15494C32.3549 2.99472 33.6159 4.76266 33.719 6.5306C34.5882 10.6853 34.4705 13.8393 34.5 18.0381C34.5295 19.6293 34.5827 22.1811 34.2291 23.7281L33.9111 25.2898C33.7785 31.6249 33.7785 39.0121 33.6606 45.3472L33.6164 48.5147C33.749 51.3287 31.2886 53.7891 28.5336 53.7007C22.0364 53.7744 15.3302 54.7386 8.72991 54.9154C15.3302 55.0922 23.5028 55.4263 30 55.5C33.7569 55.5295 35.4522 53.829 35.1928 49.1601V45.3324C35.075 38.9973 35.3991 31.6101 35.2665 25.275L35.2812 25.3192Z" fill="#E9EBEC"/>
</svg>
