<svg viewBox="0 0 36 57" fill="none" xmlns="http://www.w3.org/2000/svg" preserveAspectRatio="none">
<path d="M24.0352 55.074C22.5437 54.9213 21.064 55.6728 19.5725 55.5789C17.3411 55.6024 8.40368 54.8262 6.17232 54.8027C3.98794 54.8027 2.03844 54.2976 1.78007 51.8196C1.75659 50.3986 2.09716 48.8955 2.01495 47.4627C1.97972 45.9712 1.76833 44.4915 1.72135 43C1.63915 40.0288 2.41463 36.3301 2.32068 33.3588C2.34417 32.619 1.46337 31.8674 1.52209 31.1276C1.46337 27.4047 2.14452 25.5358 2.15627 21.8247C2.1915 17.5147 2.6917 12.0412 2.49205 7.70759C2.1045 5.05345 5.96474 1.75127 8.7833 1.92743C14.7833 1.42743 16.6029 1.31797 23.1029 1.31797C23.9015 1.28274 29.7081 0.999889 31 0.999889C25.5872 0.54457 25.9389 0.474669 20.5015 0.286769C17.4598 0.204559 4.82739 -0.796859 2.61953 1.78682C1.40989 2.97296 0.953592 6.09866 0.965335 7.73107L1 12C0.929536 14.9712 0.158049 18.8535 0.240257 21.8247C0.263745 25.5358 0.864428 27.4165 0.805708 31.151C0.852684 31.8909 -0.0163704 32.6426 0.0071176 33.3824C-0.0868342 36.3537 0.781835 40.0522 0.699627 43.0234C0.617419 45.2547 0.229868 47.4744 0.49998 49.7057C0.582188 50.3986 0.629163 51.3617 0.840555 52.0311C0.99998 54.5 2.99998 56.4999 6.19581 56.529C8.42717 56.5055 17.3764 56.7651 19.596 56.7886C21.0757 56.6947 22.5437 56.9295 24.0352 56.7886C26.1491 56.6594 33.1251 55.8843 33.1251 55.8843C33.1251 55.8843 26.1491 55.2149 24.047 55.074H24.0352Z" fill="#E9EBEC"/>
</svg>
