<svg viewBox="0 0 36 56" fill="none" xmlns="http://www.w3.org/2000/svg" preserveAspectRatio="none">
<path d="M34.6139 0.486614C30.0094 0.328649 24.3351 0.22453 19.9048 0.514132C19.44 0.579951 19.0094 0.55329 18.5446 0.921875C18.3121 1.07984 18.0791 1.06709 17.8612 1.09342C16.1908 1.18556 14.0978 0.237694 12.5 0.171875C10.4083 0.32984 7.85313 0.672097 5.5 0.500969C4.16365 0.593115 2.60943 0.066565 1.36023 0.698425C0.895416 0.922208 0.464816 1.04076 0 1.05392C0.886056 1.14607 1.77211 1.68578 2.74532 1.58047C3.45707 1.54098 4.82247 1.47516 5.50517 1.47516C8 1.47516 10.4177 1.8552 12.4803 2C13.8602 1.94735 15.6056 1.1448 17 1C17.3208 0.907409 18 1.00082 18.5446 1.09342C19.0094 1.47516 19.4597 1.38302 19.9245 1.462C24.4419 1.8964 29.8641 1.77666 34.1927 1.31593C34.9916 1.22378 35.5145 1.23695 35.5 1C35.5 0.802544 35.0736 0.776138 34.6088 0.683992L34.6139 0.486614Z" fill="#E9EBEC"/>
<path d="M33 55C33 54.5508 31.8099 54.0156 31 54H26.8618C18.5 54.0016 19.799 54.3586 12.797 54.6558C7.87029 53.6703 4.92671 54.249 0 54.6557V55.2816C4.92671 55.6726 7.87029 55.9855 12.797 55C19.7821 55.2972 19.5853 55.908 26.6042 55.7516C26.6042 55.7516 28.9877 55.7516 30.7424 55.7359C31.5523 55.7359 33 55.5 33 55Z" fill="#E9EBEC"/>
</svg>
