<svg viewBox="0 0 36 56" fill="none" xmlns="http://www.w3.org/2000/svg" preserveAspectRatio="none">
<path d="M4 0.999423C4.25424 0.983596 4.49153 0.967769 4.74577 0.951942C18 -0.500123 23.1356 0.225883 36 0.39998V1.32988C24.8182 1.32988 24.5 1.49962 13.5 1.49962C11.1102 1.45214 6.40678 1.12604 4 0.999423Z" fill="#E9EBEC"/>
<path d="M35.4429 54.5368C32.6094 53.8838 29.8111 53.6716 26.9776 53.8675C16.0133 54.5858 15.1346 52.5451 4.27585 54.3246C-1.21481 55.2241 4.27477 54.9603 9.71294 55.7276C18.9048 55.7276 17.8073 55.0093 26.9414 55.499C29.7572 55.6949 32.3102 55.5862 35.4429 54.9985C36.0237 54.8843 35.9709 54.6674 35.4429 54.5531V54.5368Z" fill="#E9EBEC"/>
</svg>
